<svg xmlns="http://www.w3.org/2000/svg" viewBox="0 0 166.73 199.77"><defs><style>.cls-1,.cls-3{fill:#fff;}.cls-1,.cls-2{stroke:#000;stroke-linejoin:round;stroke-width:7px;}.cls-1{stroke-linecap:round;}.cls-2{fill:#44aeea;}</style></defs><title>about-center-icon-2</title><g id="Layer_2" data-name="Layer 2"><g id="Layer_1-2" data-name="Layer 1"><path class="cls-1" d="M124.55,146.83h2a7.65,7.65,0,1,0,0-15.3H79.87L89.24,125A7.22,7.22,0,0,0,91,115l-2.14-3.08a7.22,7.22,0,0,0-10-1.8L49.36,130.66a7.14,7.14,0,0,0-1,.87H40.7V189.2H119a7,7,0,0,0,7-7v-1.32a6.93,6.93,0,0,0-1.33-4.07A7.26,7.26,0,0,0,129,170.2v-.82a7.26,7.26,0,0,0-7.24-7.24h2.76a7.5,7.5,0,0,0,7.48-7.48v-.34A7.5,7.5,0,0,0,124.55,146.83Z"/><rect class="cls-2" x="3.5" y="126.17" width="37.2" height="70.1"/><rect class="cls-1" x="104.2" y="75.67" width="15.5" height="55.86" rx="0.56" ry="0.56"/><path class="cls-3" d="M149.88,51.34a13.28,13.28,0,0,1-2.74-5,13,13,0,0,1-.66-5.7,16.59,16.59,0,0,1,1.23-5.53l.3-.69-.7-.05a17.08,17.08,0,0,1-5.52-1.44A12.92,12.92,0,0,1,137,29.69a12.92,12.92,0,0,1-3.21-4.75,17,17,0,0,1-1.44-5.48q0-.38-.05-.75l-.63.27a16.66,16.66,0,0,1-5.6,1.26,13,13,0,0,1-5.7-.66,13.41,13.41,0,0,1-5.09-2.8A18.22,18.22,0,0,1,112,13.15a18.6,18.6,0,0,1-3.45,3.71,13.28,13.28,0,0,1-5,2.74,13,13,0,0,1-5.7.66A16.59,16.59,0,0,1,92.25,19l-.69-.3c0,.23,0,.46-.05.7a17.08,17.08,0,0,1-1.44,5.52,12.92,12.92,0,0,1-3.21,4.75,12.92,12.92,0,0,1-4.75,3.21,17,17,0,0,1-5.48,1.44l-.75.05.27.63a16.65,16.65,0,0,1,1.26,5.6,13,13,0,0,1-.66,5.7A13.4,13.4,0,0,1,74,51.41a18.23,18.23,0,0,1-3.64,3.37A18.61,18.61,0,0,1,74,58.23a13.28,13.28,0,0,1,2.74,5,13,13,0,0,1,.66,5.7,16.59,16.59,0,0,1-1.23,5.53l-.3.69.7.05a17.09,17.09,0,0,1,5.52,1.44,15.08,15.08,0,0,1,8,8,17,17,0,0,1,1.44,5.48c0,.25,0,.5.05.75l.63-.27a16.65,16.65,0,0,1,5.6-1.26,13,13,0,0,1,5.7.66,13.41,13.41,0,0,1,5.09,2.8A18.21,18.21,0,0,1,112,96.42a18.6,18.6,0,0,1,3.45-3.71,13.28,13.28,0,0,1,5-2.74,12.91,12.91,0,0,1,5.7-.66,16.59,16.59,0,0,1,5.53,1.23l.69.3c0-.23,0-.46.05-.7a17.09,17.09,0,0,1,1.44-5.52,15.08,15.08,0,0,1,8-8,17,17,0,0,1,5.48-1.44l.75-.05-.27-.63a16.66,16.66,0,0,1-1.26-5.6,13,13,0,0,1,.66-5.7,13.4,13.4,0,0,1,2.8-5.09,18.21,18.21,0,0,1,3.64-3.37A18.59,18.59,0,0,1,149.88,51.34Z"/><path d="M166.67,55.42c0-.09,0-.17,0-.26s0-.09,0-.14,0-.16,0-.23,0-.15,0-.23,0-.09,0-.14,0-.17,0-.26a3.55,3.55,0,0,0-.12-.48l0-.08A3.5,3.5,0,0,0,163,51.24a11.63,11.63,0,0,1-7-2.08,10.74,10.74,0,0,1-2.46-2.27,5.73,5.73,0,0,1-1.22-2.26c0-.09-.06-.18-.09-.27a5.31,5.31,0,0,1-.26-2.49c0-.1,0-.2,0-.3a8.64,8.64,0,0,1,.66-2.93,14.32,14.32,0,0,1,1.82-3.29,9.89,9.89,0,0,1,2.69-2.46,3.53,3.53,0,0,0-3.67-6,9.91,9.91,0,0,1-3.42,1.26,14.21,14.21,0,0,1-3.71.12,9.16,9.16,0,0,1-3-.79l-.22-.09A5.26,5.26,0,0,1,141,26l-.27-.27a5.26,5.26,0,0,1-1.38-2.08l-.09-.22a9.09,9.09,0,0,1-.78-3,14.41,14.41,0,0,1,.11-3.75,9.93,9.93,0,0,1,1.26-3.43,3.53,3.53,0,0,0-6-3.67,9.91,9.91,0,0,1-2.47,2.7,14.15,14.15,0,0,1-3.23,1.79,8.72,8.72,0,0,1-3,.68l-.3,0a5.25,5.25,0,0,1-2.49-.26l-.27-.09a5.84,5.84,0,0,1-2.34-1.28,10.42,10.42,0,0,1-2.18-2.37,12.24,12.24,0,0,1-2.1-6c0-.13,0-.25,0-.38s0-.4,0-.61a3.52,3.52,0,0,0-3-3.69l-.16,0-.18,0h-.47l-.17,0-.2,0a3.5,3.5,0,0,0-.53.13l-.06,0a3.52,3.52,0,0,0-2.34,3.53,11.61,11.61,0,0,1-2.08,7,10.74,10.74,0,0,1-2.27,2.46,5.73,5.73,0,0,1-2.26,1.22l-.27.09a5.25,5.25,0,0,1-2.49.26l-.3,0a8.64,8.64,0,0,1-2.93-.66,14.32,14.32,0,0,1-3.29-1.82,9.89,9.89,0,0,1-2.46-2.69,3.53,3.53,0,0,0-6,3.67,9.91,9.91,0,0,1,1.26,3.42,14.27,14.27,0,0,1,.12,3.71,9.16,9.16,0,0,1-.79,3l-.09.22a5.26,5.26,0,0,1-1.38,2.08l-.27.27a5.26,5.26,0,0,1-2.08,1.38l-.22.09a9.09,9.09,0,0,1-3,.78,14.41,14.41,0,0,1-3.75-.11,9.93,9.93,0,0,1-3.43-1.26,3.53,3.53,0,0,0-3.67,6,9.91,9.91,0,0,1,2.7,2.47,14.15,14.15,0,0,1,1.79,3.23,8.72,8.72,0,0,1,.68,3c0,.1,0,.2,0,.3a5.31,5.31,0,0,1-.26,2.49c0,.09-.06.18-.09.27A5.84,5.84,0,0,1,70.31,47a10.42,10.42,0,0,1-2.37,2.18,12.28,12.28,0,0,1-6.06,2.1h-.3c-.22,0-.44,0-.66,0A3.55,3.55,0,0,0,57.66,53l0,0a3.48,3.48,0,0,0-.25.53l-.05.13a3.49,3.49,0,0,0-.11.46c0,.09,0,.18,0,.27s0,.09,0,.14,0,.16,0,.23,0,.15,0,.23,0,.09,0,.14,0,.18,0,.27a3.54,3.54,0,0,0,.11.47l0,.12a3.53,3.53,0,0,0,3.52,2.31,11.58,11.58,0,0,1,7,2.08,10.74,10.74,0,0,1,2.46,2.27,5.73,5.73,0,0,1,1.22,2.26c0,.09.06.18.09.27a5.31,5.31,0,0,1,.26,2.49c0,.1,0,.2,0,.3a8.64,8.64,0,0,1-.66,2.93,14.32,14.32,0,0,1-1.82,3.29,9.89,9.89,0,0,1-2.69,2.46,3.53,3.53,0,0,0,3.67,6,9.91,9.91,0,0,1,3.42-1.26,14.21,14.21,0,0,1,3.71-.12,9.16,9.16,0,0,1,3,.79l.22.09a5.26,5.26,0,0,1,2.08,1.38l.27.27A5.26,5.26,0,0,1,84.51,86l.09.22a9.09,9.09,0,0,1,.78,3,14.41,14.41,0,0,1-.11,3.75A9.93,9.93,0,0,1,84,96.32a3.53,3.53,0,0,0,6,3.67,9.91,9.91,0,0,1,2.47-2.7,14.15,14.15,0,0,1,3.23-1.79,8.72,8.72,0,0,1,3-.68l.3,0a5.25,5.25,0,0,1,2.49.26l.27.09a5.84,5.84,0,0,1,2.34,1.28,10.42,10.42,0,0,1,2.18,2.37,12.24,12.24,0,0,1,2.1,6c0,.13,0,.25,0,.38s0,.4,0,.61a3.52,3.52,0,0,0,1.65,3.2h0a3.48,3.48,0,0,0,.53.28l.12,0a3.47,3.47,0,0,0,.47.14l.27,0,.25,0h.47l.25,0,.27,0a3.48,3.48,0,0,0,.48-.14l.11,0a3.52,3.52,0,0,0,2.19-3.47,11.61,11.61,0,0,1,2.08-7,10.74,10.74,0,0,1,2.27-2.46,5.73,5.73,0,0,1,2.26-1.22l.27-.09a5.25,5.25,0,0,1,2.49-.26l.3,0a8.64,8.64,0,0,1,2.93.66,14.32,14.32,0,0,1,3.29,1.82,9.89,9.89,0,0,1,2.46,2.69,3.53,3.53,0,0,0,6-3.67,9.91,9.91,0,0,1-1.26-3.42,14.27,14.27,0,0,1-.12-3.71,9.16,9.16,0,0,1,.79-3l.09-.22a5.26,5.26,0,0,1,1.38-2.08l.27-.27a5.26,5.26,0,0,1,2.08-1.38l.22-.09a9.09,9.09,0,0,1,3-.78,14.53,14.53,0,0,1,3.75.11,9.93,9.93,0,0,1,3.43,1.26,3.53,3.53,0,0,0,3.67-6,9.91,9.91,0,0,1-2.7-2.47A14.15,14.15,0,0,1,152.67,71a8.72,8.72,0,0,1-.68-3c0-.1,0-.2,0-.3a5.31,5.31,0,0,1,.26-2.49c0-.09.06-.18.09-.27a5.84,5.84,0,0,1,1.28-2.34A10.42,10.42,0,0,1,156,60.42a12.19,12.19,0,0,1,6.11-2.11H163A3.51,3.51,0,0,0,166.52,56l0-.09A3.5,3.5,0,0,0,166.67,55.42ZM148.24,58a12.8,12.8,0,0,0-2.67,4.86,12.37,12.37,0,0,0-.63,5.45,15.91,15.91,0,0,0,1.2,5.34l.26.6-.71.05a16.24,16.24,0,0,0-5.23,1.37,14.4,14.4,0,0,0-7.6,7.6,16.32,16.32,0,0,0-1.38,5.27c0,.23,0,.45,0,.67l-.66-.28a15.85,15.85,0,0,0-5.29-1.18,12.34,12.34,0,0,0-5.45.63A12.68,12.68,0,0,0,115.24,91,17.76,17.76,0,0,0,112,94.55a17.39,17.39,0,0,0-3.22-3.48,12.8,12.8,0,0,0-4.86-2.67,12.37,12.37,0,0,0-5.45-.63A15.91,15.91,0,0,0,93.07,89l-.6.26c0-.23,0-.47-.05-.71a16.24,16.24,0,0,0-1.37-5.23,14.4,14.4,0,0,0-7.6-7.6,16.32,16.32,0,0,0-5.27-1.38l-.67,0,.28-.66A15.85,15.85,0,0,0,79,68.32a12.37,12.37,0,0,0-.63-5.45,12.68,12.68,0,0,0-2.61-4.79,17.77,17.77,0,0,0-3.54-3.29,17.41,17.41,0,0,0,3.48-3.22,12.8,12.8,0,0,0,2.67-4.86A12.37,12.37,0,0,0,79,41.25a15.91,15.91,0,0,0-1.2-5.34l-.26-.6.71-.05a16.24,16.24,0,0,0,5.23-1.37A12.34,12.34,0,0,0,88,30.82a12.34,12.34,0,0,0,3.07-4.54A16.32,16.32,0,0,0,92.43,21c0-.23,0-.45,0-.67l.66.28a15.85,15.85,0,0,0,5.29,1.18,12.38,12.38,0,0,0,5.45-.63,12.68,12.68,0,0,0,4.79-2.61A17.76,17.76,0,0,0,112,15a17.4,17.4,0,0,0,3.22,3.48A12.8,12.8,0,0,0,120,21.17a12.37,12.37,0,0,0,5.45.63,15.91,15.91,0,0,0,5.34-1.2l.6-.26c0,.23,0,.47.05.71a16.24,16.24,0,0,0,1.37,5.23,12.34,12.34,0,0,0,3.07,4.54,12.34,12.34,0,0,0,4.54,3.07,16.32,16.32,0,0,0,5.27,1.38l.67,0-.28.66a15.85,15.85,0,0,0-1.18,5.29,12.37,12.37,0,0,0,.63,5.45,12.68,12.68,0,0,0,2.61,4.79,17.76,17.76,0,0,0,3.54,3.29A17.4,17.4,0,0,0,148.24,58Z"/><circle class="cls-2" cx="111.95" cy="54.79" r="23.7"/><path d="M117.42,48.51a11.53,11.53,0,0,0-5.06-1.27,2.93,2.93,0,0,0-2.06.64,2.15,2.15,0,0,0-.69,1.65,2.35,2.35,0,0,0,.2,1,2.49,2.49,0,0,0,.56.78,4.14,4.14,0,0,0,.87.63,8.81,8.81,0,0,0,1.12.51A21.12,21.12,0,0,1,115,53.62,11.92,11.92,0,0,1,117,55a5.36,5.36,0,0,1,1.9,4.29Q118.94,64,114,65v4.27h-3.75V65.16a16.1,16.1,0,0,1-2.63-.5,18.49,18.49,0,0,1-2.66-1l1.34-2.79q1.3.51,2.55.88a8.39,8.39,0,0,0,2.4.37q3.43,0,3.43-2.89a2.66,2.66,0,0,0-.27-1.2,3.45,3.45,0,0,0-.77-1,5.77,5.77,0,0,0-1.19-.83,14.34,14.34,0,0,0-1.53-.7,17.45,17.45,0,0,1-2.06-.9,11.76,11.76,0,0,1-1.73-1.08,4.63,4.63,0,0,1-1.36-1.67,5.15,5.15,0,0,1-.47-2.25,4.56,4.56,0,0,1,1.28-3.19,6.11,6.11,0,0,1,1.56-1.16,7.82,7.82,0,0,1,2.13-.74V40.31H114V44.4a12.51,12.51,0,0,1,2.45.49,14.68,14.68,0,0,1,2.19.87Z"/></g></g></svg>