<svg xmlns="http://www.w3.org/2000/svg" viewBox="0 0 152.57 163.74"><defs><style>.cls-1,.cls-2{fill:#fff;}.cls-1,.cls-3,.cls-4{stroke:#000;stroke-linecap:round;stroke-linejoin:round;}.cls-1,.cls-4{stroke-width:8px;}.cls-3{stroke-width:2px;}.cls-4{fill:#44aeea;}</style></defs><title>about-center-icon-1</title><g id="Layer_2" data-name="Layer 2"><g id="Layer_1-2" data-name="Layer 1"><polyline class="cls-1" points="71.64 105.96 39.52 159.74 32.01 132.68 4 139.94 36.12 86.16"/><polyline class="cls-1" points="80.93 105.96 113.05 159.74 120.56 132.68 148.57 139.94 116.44 86.16"/><path class="cls-2" d="M126.61,57.92c-3.89-2.57-6.39-5.64-7.5-9.16A16.63,16.63,0,0,1,120,37.18a24.88,24.88,0,0,1,1.34-2.64,26.13,26.13,0,0,1-3-.06,18.07,18.07,0,0,1-11.12-4.54,16.8,16.8,0,0,1-4.95-10.63,21.59,21.59,0,0,1-.15-2.92,22.15,22.15,0,0,1-2.71,1.34,18.19,18.19,0,0,1-12,1.17,17.64,17.64,0,0,1-9.62-7A24.12,24.12,0,0,1,76.28,9.4a21.35,21.35,0,0,1-1.71,2.43,17.63,17.63,0,0,1-9.92,6.57,18.23,18.23,0,0,1-11.92-1.7c-.51-.25-1.06-.53-1.62-.85,0,.65,0,1.29,0,1.91a16.7,16.7,0,0,1-4.44,10.81,18,18,0,0,1-10.87,5,24.08,24.08,0,0,1-3,.2,25.39,25.39,0,0,1,1.44,2.54,16.7,16.7,0,0,1,1.49,11.56c-1,3.61-3.31,6.78-7,9.45a27.09,27.09,0,0,1-2.57,1.59A26.63,26.63,0,0,1,28.6,60.5c3.73,2.7,6.09,5.87,7,9.47A16.67,16.67,0,0,1,34.18,81.5a25.84,25.84,0,0,1-1.46,2.58,24,24,0,0,1,3,.2,18,18,0,0,1,10.87,5,16.72,16.72,0,0,1,4.44,10.84c0,.61.05,1.25,0,1.89.56-.32,1.1-.6,1.61-.85a18.24,18.24,0,0,1,11.92-1.71,17.67,17.67,0,0,1,9.95,6.6,21.1,21.1,0,0,1,1.69,2.41A24.08,24.08,0,0,1,77.85,106a17.64,17.64,0,0,1,9.62-7,18.24,18.24,0,0,1,12,1.18,22.05,22.05,0,0,1,2.68,1.33,21.65,21.65,0,0,1,.15-2.92,16.8,16.8,0,0,1,4.94-10.62,18,18,0,0,1,11.09-4.54,26.91,26.91,0,0,1,3-.06A24.56,24.56,0,0,1,120,80.72a16.66,16.66,0,0,1-.94-11.61c1.1-3.53,3.61-6.6,7.44-9.13.61-.39,1.22-.73,1.82-1C127.78,58.62,127.2,58.29,126.61,57.92Z"/><path class="cls-3" d="M137.35,58.93l.12-2.65h-.24v0a14.94,14.94,0,0,1-5-.7,18.12,18.12,0,0,1-4.37-2,11.63,11.63,0,0,1-5.06-6,11.12,11.12,0,0,1,.72-7.68,17.55,17.55,0,0,1,2.47-4.1,14.25,14.25,0,0,1,3.78-3.29l-2.87-4.55a14.7,14.7,0,0,1-4.76,1.73,18.91,18.91,0,0,1-4.88.24,12.11,12.11,0,0,1-7.43-2.91,11.25,11.25,0,0,1-3.17-7.11,16.07,16.07,0,0,1,.14-4.72,13.4,13.4,0,0,1,1.67-4.61h0l-4.78-2.67h0a13.88,13.88,0,0,1-3.3,3.69A17.59,17.59,0,0,1,96.18,14a12.22,12.22,0,0,1-7.95.9,11.78,11.78,0,0,1-6.32-4.74,15.23,15.23,0,0,1-3.07-9L73.32,1a13.32,13.32,0,0,1-1.06,4.78,16.44,16.44,0,0,1-2.42,4.1,11.8,11.8,0,0,1-6.53,4.47,12.19,12.19,0,0,1-7.9-1.24,16.8,16.8,0,0,1-6.16-4.93,17.68,17.68,0,0,0-1-1.75l-1.43.88L43.34,9.08a18.52,18.52,0,0,0,1.15,1.84,14.08,14.08,0,0,1,1,2.91,16.25,16.25,0,0,1,.36,4.71A11.18,11.18,0,0,1,43,25.78,12.05,12.05,0,0,1,35.73,29a16.65,16.65,0,0,1-2.42.14A18.27,18.27,0,0,1,30.85,29,14.72,14.72,0,0,1,26,27.47h0l-2.66,4.68a14.37,14.37,0,0,1,3.93,3.12,17.41,17.41,0,0,1,2.65,4A11.19,11.19,0,0,1,31,46.89a11.53,11.53,0,0,1-4.72,6.2A18.32,18.32,0,0,1,22,55.35a14.86,14.86,0,0,1-5,.91V61.6a14.87,14.87,0,0,1,5,.91,18.23,18.23,0,0,1,4.28,2.24A11.58,11.58,0,0,1,31,71a11.15,11.15,0,0,1-1.07,7.63,17.48,17.48,0,0,1-2.66,4,14.38,14.38,0,0,1-3.93,3.13L26,90.4a14.72,14.72,0,0,1,4.83-1.52,18,18,0,0,1,2.49-.17,16.85,16.85,0,0,1,2.4.14A12.05,12.05,0,0,1,43,92.08a11.2,11.2,0,0,1,2.84,7.26,16.21,16.21,0,0,1-.36,4.69,14.09,14.09,0,0,1-1,2.91,18.51,18.51,0,0,0-1.15,1.84l3.48,1.77,1.43.89a17.71,17.71,0,0,0,1-1.75,16.78,16.78,0,0,1,6.15-4.93,12.2,12.2,0,0,1,7.9-1.25,11.84,11.84,0,0,1,6.56,4.5,16.41,16.41,0,0,1,2.41,4.08,13.32,13.32,0,0,1,1.05,4.78l5.52-.11a15.22,15.22,0,0,1,3.06-9A11.79,11.79,0,0,1,88.22,103a12.25,12.25,0,0,1,8,.91,17.56,17.56,0,0,1,4.14,2.46,13.88,13.88,0,0,1,3.31,3.7l4.78-2.67h0a13.4,13.4,0,0,1-1.67-4.62,16.08,16.08,0,0,1-.14-4.71,11.25,11.25,0,0,1,3.17-7.11,12.08,12.08,0,0,1,7.4-2.92,18.91,18.91,0,0,1,4.9.24A14.72,14.72,0,0,1,126.85,90l2.87-4.55A14.25,14.25,0,0,1,126,82.15a17.55,17.55,0,0,1-2.46-4.07,11.16,11.16,0,0,1-.73-7.71,11.57,11.57,0,0,1,5-6,18.26,18.26,0,0,1,4.42-2.08,15,15,0,0,1,5-.7v0h.24Zm-12.64,1c-3.73,2.46-6.16,5.44-7.23,8.87a16.19,16.19,0,0,0,.91,11.29,23.87,23.87,0,0,0,1.29,2.53,26.15,26.15,0,0,0-3,.06,17.53,17.53,0,0,0-10.78,4.41,16.33,16.33,0,0,0-4.8,10.32,21,21,0,0,0-.14,2.84A21.43,21.43,0,0,0,98.39,99a17.73,17.73,0,0,0-11.66-1.15,17.14,17.14,0,0,0-9.35,6.83,23.4,23.4,0,0,0-1.53,2.41,20.51,20.51,0,0,0-1.65-2.34,17.17,17.17,0,0,0-9.67-6.41A17.73,17.73,0,0,0,53,100c-.49.24-1,.51-1.56.82,0-.62,0-1.24,0-1.84A16.25,16.25,0,0,0,47,88.43a17.46,17.46,0,0,0-10.56-4.87,23.31,23.31,0,0,0-2.94-.19,25.12,25.12,0,0,0,1.42-2.51,16.2,16.2,0,0,0,1.42-11.21c-.93-3.49-3.22-6.58-6.84-9.2a25.87,25.87,0,0,0-2.46-1.52,26.32,26.32,0,0,0,2.5-1.55,16.73,16.73,0,0,0,6.81-9.19A16.23,16.23,0,0,0,34.93,37a24.67,24.67,0,0,0-1.4-2.47,23.4,23.4,0,0,0,2.95-.19A17.47,17.47,0,0,0,47,29.43a16.23,16.23,0,0,0,4.31-10.51c0-.61.05-1.23,0-1.86.55.31,1.08.59,1.58.83a17.72,17.72,0,0,0,11.59,1.66,17.13,17.13,0,0,0,9.64-6.39,20.75,20.75,0,0,0,1.66-2.36,23.44,23.44,0,0,0,1.53,2.42A17.14,17.14,0,0,0,86.74,20a17.68,17.68,0,0,0,11.62-1.14,21.53,21.53,0,0,0,2.63-1.3,21,21,0,0,0,.14,2.83,16.33,16.33,0,0,0,4.81,10.33,17.56,17.56,0,0,0,10.81,4.41,25.39,25.39,0,0,0,2.92.06,24.18,24.18,0,0,0-1.3,2.57,16.16,16.16,0,0,0-.9,11.26c1.07,3.43,3.51,6.41,7.29,8.9.57.36,1.14.68,1.71,1C125.89,59.25,125.31,59.58,124.71,60Z"/><polygon class="cls-4" points="77.22 31.39 85.58 47.75 104.26 50.37 90.74 63.11 93.93 81.08 77.22 72.6 60.51 81.08 63.7 63.11 50.18 50.37 68.87 47.75 77.22 31.39"/></g></g></svg>