<svg xmlns="http://www.w3.org/2000/svg" viewBox="0 0 322.64 409.64"><defs><style>.cls-1{fill:#fff;}.cls-2{fill:#1b81c6;}.cls-3{fill:none;stroke:#000;stroke-linecap:round;stroke-miterlimit:10;stroke-width:24px;}</style></defs><title>bank-guarantees-1</title><g id="Layer_2" data-name="Layer 2"><g id="Layer_1-2" data-name="Layer 1"><polygon class="cls-1" points="316.93 315.34 231.93 400.34 14.93 400.34 14.93 10.34 316.93 10.34 316.93 315.34"/><path d="M17.7,409.64c-1.71-.69-3.47-1.27-5.11-2.09C4.61,403.55.3,397,.12,388.13-.08,378,0,190.8.07,180.67c0-6.16,4-10.53,9.53-10.67,5.77-.14,10.08,4.07,10.2,10.45.18,8.8.05,194.66.06,203.46,0,5.87,0,5.88,5.93,5.88H220.92v-4.65q0-26.4,0-52.8c0-15.64,8.64-24.34,24.17-24.35q26.4,0,52.8,0h4.66c.08-1.74.21-3.15.21-4.57q0-139.19.08-278.38c0-3.93-.94-5.28-5.11-5.27q-136.39.17-272.78,0c-4.1,0-5.17,1.22-5.16,5.22.12,48.26.07,141.12.1,189.39,0,4.32-.64,8.23-4.55,10.87A9.76,9.76,0,0,1,.16,218.4,35,35,0,0,1,.06,214c0-48.26,0-141.12,0-189.39C.06,8.52,8.61,0,24.76,0H297.95C314,0,322.56,8.58,322.56,24.72q0,144.79.08,289.58a17.15,17.15,0,0,1-5.43,13.11c-25.64,25.46-51.12,51.07-76.74,76.56-2.21,2.2-5,3.79-7.56,5.67Zm269.89-81.52a4.34,4.34,0,0,0-1.07-.28c-14.13,0-28.26,0-42.4-.06-2.68,0-3.4,1.21-3.39,3.68.07,14,0,28,.05,42a6.07,6.07,0,0,0,.23,1.24Z"/><path class="cls-2" d="M287.59,328.11,241,374.68a6.07,6.07,0,0,1-.23-1.24c0-14,0-28-.05-42,0-2.46.71-3.69,3.39-3.68,14.13.07,28.26,0,42.4.06A4.34,4.34,0,0,1,287.59,328.11Z"/><line class="cls-3" x1="72.78" y1="85.48" x2="246.11" y2="85.48"/><line class="cls-3" x1="72.78" y1="140.81" x2="246.11" y2="140.81"/><line class="cls-3" x1="72.78" y1="196.14" x2="246.11" y2="196.14"/><line class="cls-3" x1="72.78" y1="251.48" x2="246.11" y2="251.48"/></g></g></svg>