<svg xmlns="http://www.w3.org/2000/svg" viewBox="0 0 116.67 92.87"><defs><style>.cls-1{fill:#44aeea;}.cls-1,.cls-2{stroke:#000;stroke-linecap:round;stroke-linejoin:round;stroke-width:5px;}.cls-2{fill:#fff;}</style></defs><title>bank-guarantees-2</title><g id="Layer_2" data-name="Layer 2"><g id="Layer_1-2" data-name="Layer 1"><path class="cls-1" d="M53.77,32.85h52.37a8,8,0,0,1,8,8V69.64a8,8,0,0,1-8,8h-2.84V90.37L86.89,77.66H53.77a8,8,0,0,1-8-8V40.87A8,8,0,0,1,53.77,32.85Z"/><path class="cls-2" d="M85.92,2.5H13.58A11.12,11.12,0,0,0,2.5,13.58V53.31A11.12,11.12,0,0,0,13.58,64.39H17.5V81.94L40.18,64.39H85.92A11.12,11.12,0,0,0,97,53.31V13.58A11.12,11.12,0,0,0,85.92,2.5Z"/><circle class="cls-1" cx="28.5" cy="32.85" r="5.71"/><circle class="cls-1" cx="50.13" cy="32.85" r="5.71"/><circle class="cls-1" cx="71.75" cy="32.85" r="5.71"/></g></g></svg>