<svg xmlns="http://www.w3.org/2000/svg" viewBox="0 0 391.9 257.38"><defs><style>.cls-1{fill:#fff;}.cls-2{fill:#1b81c6;}</style></defs><title>bank-guarantees-column-3</title><g id="Layer_2" data-name="Layer 2"><g id="Layer_1-2" data-name="Layer 1"><polygon class="cls-1" points="242.88 49.86 280.22 30.86 332.26 144.86 312.22 171.86 261.72 206.36 168.72 248.36 151.72 243.36 142.72 228.86 122.72 236.36 109.72 213.86 91.72 207.36 91.72 177.36 84.22 164.36 112.72 137.51 160.72 115.36 158.22 102.86 188.22 67.36 218.72 77.11 238.72 76.36 259.2 77.93 257.6 65.86 259.2 49.86 242.88 49.86"/><path class="cls-2" d="M83.12,155.17l.89-.69c13.37-10.18,28.86-15.05,44.43-20.14,8.93-4.69,17.94-9.25,26.95-13.8-.1-11.33,7.26-21.69,17.25-27l-1.06.45A33.47,33.47,0,0,0,175,92.22a30.54,30.54,0,0,1,20.75-20.9,30.93,30.93,0,0,1,9.22-1.19c10.37-.92,19,4,28.64,6.28a142,142,0,0,0,22.83-.61c.94-.19,1.87-.4,2.8-.62a28.74,28.74,0,0,1-1.61-9.31c0-2.94-.06-5.86-.26-8.77l-.26-.28A76.36,76.36,0,0,1,249,46.56l-6.07,3.3L186.22,27.52l-48.67-5-18,10L94.22,25.19,52.89,142.52l17.33,8Z"/><path class="cls-2" d="M290.2,34.8l33.85-16.6L374.31,121l-33.84,16.63Z"/><path class="cls-1" d="M53.83,16.71l25.93,8.8c2.17.74,4.28,1.68,6.5,2.21,3,.71,3.38,2,2.38,4.89C81.17,54,73.87,75.43,66.53,96.86c-4.57,13.35-9.13,26.7-13.9,40.66l-36-12.27Z"/><path d="M389.74,118.14Q362.55,62.7,335.35,7.26c-3.38-6.89-6.6-8-13.44-4.69Q300.94,12.79,280,23c-2.18,1.06-5.84,2.06-7,3.07l-29.75,18.5,11.92,1.61c-28.66-9.85-57.35-19.64-86-29.65-12.38-4.33-24.26-3.85-35.86,2.23-7.94,4.16-15.92,4.43-24.37,1.4C90.72,13.66,72.39,7.41,54.09,1.08c-7-2.43-10.13-.9-12.54,6.12Q21.32,66.12,1.12,125.05c-2.46,7.17-1.06,10.12,6,12.55q22.58,7.78,45.19,15.51c3.71,1.27,6.29,1.49,8.26.42L76.64,163a22.3,22.3,0,0,0,3.68,13.08,81.17,81.17,0,0,0,5.26,6.41c-.39.65-.72,1.19-1,1.73-8.39,14.65-.23,31.68,16.47,34.06,2.78.4,2.76,1.92,3,3.9,1.13,11.56,12.38,20.82,23.88,19.26,4.45-.61,8.75-2.35,13-3.55,1.37,3.16,2.37,6.67,4.25,9.6,6.36,9.9,18.42,12.63,30.12,6.93,29.68-14.45,59.46-28.71,88.9-43.62,11.79-6,23.46-12.57,34-20.46,13.66-10.21,26.1-22,39.16-33a44,44,0,0,1,8.45-5.75c13-6.53,26.07-12.83,39.12-19.23C392.59,128.56,393.52,125.84,389.74,118.14ZM16.65,125.25,53.83,16.71l25.93,8.8c2.17.74,4.28,1.68,6.5,2.21,3,.71,3.38,2,2.38,4.89C81.17,54,73.87,75.43,66.53,96.86c-4.57,13.35-9.13,26.7-13.9,40.66Zm70,20.3a19.07,19.07,0,0,0-6.29,5.75L66.29,143,102.41,38c.44-1.29.9-2.58,1.37-3.91a9.76,9.76,0,0,1,1.41.23c12.25,4.35,24,3.24,35.45-2.91,7.55-4.07,15.33-4.05,23.32-1.28,17.81,6.2,35.65,12.29,53.47,18.44,12,4.15,24,8.31,36.22,12.53a19.49,19.49,0,0,1-.43,2.42c-2.85,8.9-9.61,12.57-19.35,9.55-14.47-4.5-28.75-9.6-43.13-14.41-6.11-2-9.31-.38-11.61,5.6a78,78,0,0,1-4.43,10.14c-8.34,14.91-20.37,24.7-38.14,24.5-7.52-.08-17.9-3.91-25.37-5.37-4.89-1-8.88.64-10,4.57-1.18,4.16.9,7.89,5.73,9.26,5.63,1.59,14.17,5,19.94,5.69a62.61,62.61,0,0,0,26.06-1.85C138.66,118.14,98.43,138.92,86.7,145.55Zm238.81,3.1c-3.36,2.73-6.45,5.8-9.62,8.76-14.61,13.63-30.1,26.19-48,35.22-33,16.66-66.24,32.8-99.4,49.11a11.78,11.78,0,0,1-4.38,1.23c-5.86.34-10.33-5.73-7.67-10.9,1.16-2.26,3.7-4.21,6.07-5.4,15.26-7.67,30.64-15.09,46-22.59,6.11-3,8.1-6.57,6.07-10.88-2.11-4.48-6.23-5.19-12.53-2.11Q167.52,208,133,224.85a24.41,24.41,0,0,1-4.95,2,7.8,7.8,0,0,1-9.66-8.61c.38-4,3.19-5.85,6.38-7.41q34.69-17,69.37-33.94c5.16-2.53,6.94-6.32,5.05-10.37-2-4.22-6.1-5.16-11.47-2.62l-1.37.67q-38.1,18.69-76.21,37.37a22.46,22.46,0,0,1-5,1.9,7.84,7.84,0,0,1-6.28-14,24.07,24.07,0,0,1,3.94-2.3Q138,170.26,173.22,153c5-2.45,6.72-6.54,4.65-10.51s-6-4.82-10.93-2.54c-.93.43-1.84.87-2.76,1.32q-29.18,14.3-58.37,28.59a23.74,23.74,0,0,1-5,1.88,7.64,7.64,0,0,1-9.21-5.41c-1.33-4.27.53-7.83,5.57-10.32,10.85-5.37,52-26.9,62.78-32.33,4.28-2.15,5.7-6.14,3.94-9.87a7.13,7.13,0,0,0-6.92-4.09,54.73,54.73,0,0,0,22.11-16.54c4.72-5.73,8.3-12.4,12.56-18.87.93.31,2.25.73,3.57,1.17,11.23,3.78,22.37,7.85,33.71,11.27,10.82,3.26,21.24,2.63,30-5.74,5.79-5.55,8.28-12.72,9.68-20.37,1.35-7.34-.19-9.9-7.29-12.34l-2.12-.73,15.76-10,.09.19q25.73,52.54,51.52,105C327.79,145.35,327.73,146.84,325.5,148.64Zm15-11L290.2,34.8l33.85-16.6L374.31,121Z"/></g></g></svg>