<svg xmlns="http://www.w3.org/2000/svg" viewBox="0 0 67.48 56.7"><defs><style>.cls-1{fill:#231f20;}</style></defs><title>comment</title><g id="Layer_2" data-name="Layer 2"><g id="Layer_1-2" data-name="Layer 1"><path class="cls-1" d="M14.81,30.13A6.12,6.12,0,1,1,20.93,24,6.13,6.13,0,0,1,14.81,30.13Zm0-8.24A2.12,2.12,0,1,0,16.93,24,2.12,2.12,0,0,0,14.81,21.89Z"/><path class="cls-1" d="M27.86,30.13A6.12,6.12,0,1,1,34,24,6.13,6.13,0,0,1,27.86,30.13Zm0-8.24A2.12,2.12,0,1,0,30,24,2.12,2.12,0,0,0,27.86,21.89Z"/><path class="cls-1" d="M40.9,30.13A6.12,6.12,0,1,1,47,24,6.13,6.13,0,0,1,40.9,30.13Zm0-8.24A2.12,2.12,0,1,0,43,24,2.12,2.12,0,0,0,40.9,21.89Z"/><path class="cls-1" d="M12.1,51.88a2,2,0,0,1-2-2v-8.5H7.8A7.81,7.81,0,0,1,0,33.58V7.8A7.81,7.81,0,0,1,7.8,0H48.53a7.81,7.81,0,0,1,7.8,7.8V33.58a7.81,7.81,0,0,1-7.8,7.8H25.69l-12.32,10A2,2,0,0,1,12.1,51.88ZM7.8,4A3.8,3.8,0,0,0,4,7.8V33.58a3.8,3.8,0,0,0,3.8,3.8h4.3a2,2,0,0,1,2,2v6.29l9.61-7.84A2,2,0,0,1,25,37.38H48.53a3.8,3.8,0,0,0,3.8-3.8V7.8A3.8,3.8,0,0,0,48.53,4Z"/><path class="cls-1" d="M58.56,56.7a2,2,0,0,1-1.26-.45L49,49.51H33.62a6,6,0,0,1-6-6V39.37a2,2,0,0,1,4,0v4.17a2,2,0,0,0,2,2H49.75A2,2,0,0,1,51,46l5.55,4.53v-3a2,2,0,0,1,2-2h2.95a2,2,0,0,0,2-2V25.89a2,2,0,0,0-2-2H54.33a2,2,0,0,1,0-4h7.18a6,6,0,0,1,6,6V43.54a6,6,0,0,1-6,6h-.95V54.7a2,2,0,0,1-2,2Z"/></g></g></svg>