<svg xmlns="http://www.w3.org/2000/svg" xmlns:xlink="http://www.w3.org/1999/xlink" viewBox="0 0 147.04 144"><defs><style>.cls-1,.cls-7,.cls-8{fill:none;}.cls-2,.cls-5{fill:#fff;}.cls-2,.cls-3{stroke:#000;stroke-width:8px;}.cls-2,.cls-3,.cls-8{stroke-linecap:round;}.cls-2,.cls-3,.cls-7,.cls-8{stroke-linejoin:round;}.cls-3{fill:#44aeea;}.cls-4{fill:#1b81c6;}.cls-6{clip-path:url(#clip-path);}.cls-7,.cls-8{stroke:#1b1b1b;stroke-width:7px;}</style><clipPath id="clip-path"><rect class="cls-1" x="24.81" y="5.42" width="97.43" height="71.62"/></clipPath></defs><title>etp-work-2</title><g id="Layer_2" data-name="Layer 2"><g id="Layer_1-2" data-name="Layer 1"><rect class="cls-2" x="4" y="4" width="139.04" height="103.33" rx="8" ry="8"/><rect class="cls-3" x="4" y="82.08" width="139.04" height="25.26" rx="3.96" ry="3.96"/><rect class="cls-2" x="50.67" y="107.33" width="45.71" height="22.33" rx="2.13" ry="2.13"/><rect class="cls-2" x="9.67" y="129.67" width="127.71" height="10.33" rx="2.42" ry="2.42"/><circle cx="73.52" cy="94.7" r="4.79"/><polygon class="cls-4" points="73.18 68.39 73.18 68.39 73.67 51.19 88.33 59.52 73.18 68.39"/><polygon class="cls-5" points="94.24 15.03 74.34 51.19 88.33 59.08 109.9 22.27 94.24 15.03"/><g class="cls-6"><rect class="cls-7" x="70.32" y="28.56" width="42.25" height="16.85" transform="translate(14.08 98.19) rotate(-60.37)"/><polygon class="cls-7" points="73.67 51.19 73.16 69.14 88.33 59.52 73.67 51.19"/><path class="cls-8" d="M34,68.71a13.21,13.21,0,0,1,4.87-6.22,5.55,5.55,0,0,1,5.66-.07c3.59,1.93,4.9,7.4,9.76,6.8,2.72-.33,4.19-3,6.63-3.48s4.42,1.91,6.32,3"/></g></g></g></svg>