<svg xmlns="http://www.w3.org/2000/svg" xmlns:xlink="http://www.w3.org/1999/xlink" viewBox="0 0 147.04 108.98"><defs><style>.cls-1,.cls-5,.cls-6{fill:none;}.cls-2{fill:#1b81c6;}.cls-3{fill:#fff;}.cls-4{clip-path:url(#clip-path);}.cls-5{stroke:#000;}.cls-5,.cls-6{stroke-linejoin:round;stroke-width:7px;}.cls-6{stroke:#fff;stroke-linecap:round;}</style><clipPath id="clip-path" transform="translate(-1.14 -1.14)"><rect class="cls-1" width="149.31" height="111.25"/></clipPath></defs><title>etp-work-4</title><g id="Layer_2" data-name="Layer 2"><g id="Layer_1-2" data-name="Layer 1"><polygon class="cls-2" points="76.48 103.86 76.48 103.86 77.4 71.84 104.66 87.35 76.48 103.86"/><polygon class="cls-3" points="115.67 4.57 78.64 71.84 104.66 86.53 144.81 18.03 115.67 4.57"/><g class="cls-4"><rect class="cls-5" x="72.3" y="30.88" width="78.62" height="31.36" transform="translate(14.82 119.42) rotate(-60.37)"/><polygon class="cls-5" points="77.4 71.84 76.44 105.25 104.66 87.35 77.4 71.84"/><path class="cls-6" d="M4.64,105.58C6.52,101.17,9.5,96.5,13.69,94a10.32,10.32,0,0,1,10.54-.13c6.68,3.59,9.12,13.77,18.16,12.65,5.06-.62,7.8-5.49,12.33-6.47s8.22,3.55,11.76,5.52" transform="translate(-1.14 -1.14)"/></g></g></g></svg>