<svg xmlns="http://www.w3.org/2000/svg" viewBox="0 0 201.21 196.69"><defs><style>.cls-1,.cls-2,.cls-3{fill:#fff;}.cls-1,.cls-2,.cls-4,.cls-5{stroke:#000;}.cls-1{stroke-miterlimit:10;}.cls-1,.cls-2{stroke-width:9px;}.cls-2,.cls-4,.cls-5{stroke-linecap:round;stroke-linejoin:round;}.cls-4{stroke-width:4px;}.cls-5{fill:#44aeea;stroke-width:8px;}</style></defs><title>etp-scheme-3</title><g id="Layer_2" data-name="Layer 2"><g id="Layer_1-2" data-name="Layer 1"><circle class="cls-1" cx="87.81" cy="48.44" r="43.94"/><path class="cls-2" d="M87.81,108.88A83.31,83.31,0,0,0,4.5,192.19H171.11A83.31,83.31,0,0,0,87.81,108.88Z"/><path class="cls-3" d="M191.19,135.3a12.2,12.2,0,0,1-4.85-15.84,19.27,19.27,0,0,1,1-2,18.62,18.62,0,0,1-2.22,0,12.17,12.17,0,0,1-11.85-11.58,17.06,17.06,0,0,1-.11-2.23,16.13,16.13,0,0,1-2,1,12.16,12.16,0,0,1-15.92-4.46,18.52,18.52,0,0,1-1.16-1.9,16.32,16.32,0,0,1-1.26,1.86,12.16,12.16,0,0,1-16.12,3.72c-.38-.19-.78-.41-1.2-.65,0,.49,0,1,0,1.46a12.16,12.16,0,0,1-11.29,12.09,17.17,17.17,0,0,1-2.24.15,19.58,19.58,0,0,1,1.06,1.94,12.21,12.21,0,0,1-4.07,16,19.89,19.89,0,0,1-1.89,1.21,19.54,19.54,0,0,1,1.86,1.19,12.21,12.21,0,0,1,4.12,16,19.93,19.93,0,0,1-1.08,2,17.11,17.11,0,0,1,2.23.15,12.17,12.17,0,0,1,11.3,12.11c0,.47,0,1,0,1.44.41-.24.81-.46,1.19-.65a12.16,12.16,0,0,1,16.14,3.73,16.13,16.13,0,0,1,1.25,1.84,18.49,18.49,0,0,1,1.16-1.89,12.17,12.17,0,0,1,15.95-4.46,16.05,16.05,0,0,1,2,1,17.1,17.1,0,0,1,.11-2.23,12.17,12.17,0,0,1,11.83-11.58,19.18,19.18,0,0,1,2.24,0,19,19,0,0,1-1-2,12.2,12.2,0,0,1,4.8-15.84c.45-.29.9-.56,1.34-.8C192.06,135.84,191.63,135.59,191.19,135.3Z"/><path class="cls-4" d="M199.12,136.08l.09-2H199v0a10.68,10.68,0,0,1-3.72-.53,13.17,13.17,0,0,1-3.22-1.56,7.82,7.82,0,0,1-3.2-10.45,13.5,13.5,0,0,1,1.82-3.13,10.63,10.63,0,0,1,2.79-2.52l-2.12-3.48a10.61,10.61,0,0,1-3.51,1.32,13.49,13.49,0,0,1-3.6.19,7.8,7.8,0,0,1-7.82-7.66,12.7,12.7,0,0,1,.11-3.61,10.46,10.46,0,0,1,1.23-3.52h0l-3.53-2h0a10.49,10.49,0,0,1-2.43,2.82,12.89,12.89,0,0,1-3.08,1.89,7.79,7.79,0,0,1-10.53-2.93A11.89,11.89,0,0,1,156,91.92l-4.07-.08a10.48,10.48,0,0,1-.78,3.65,12.66,12.66,0,0,1-1.79,3.13,7.79,7.79,0,0,1-10.64,2.47,12.47,12.47,0,0,1-4.55-3.77,13.63,13.63,0,0,0-.74-1.34l-1.05.68L129.75,98a14.23,14.23,0,0,0,.85,1.41,11,11,0,0,1,.73,2.23,12.83,12.83,0,0,1,.27,3.6,7.79,7.79,0,0,1-7.46,8,11.88,11.88,0,0,1-1.79.11,13,13,0,0,1-1.81-.13A10.6,10.6,0,0,1,117,112h0l-2,3.57a10.67,10.67,0,0,1,2.9,2.39,13.33,13.33,0,0,1,2,3,7.83,7.83,0,0,1-2.68,10.59,13.36,13.36,0,0,1-3.19,1.73,10.63,10.63,0,0,1-3.69.7v4.07a10.64,10.64,0,0,1,3.69.7,13.3,13.3,0,0,1,3.16,1.71,7.83,7.83,0,0,1,2.72,10.58,13.39,13.39,0,0,1-2,3,10.67,10.67,0,0,1-2.9,2.39l2,3.57a10.6,10.6,0,0,1,3.57-1.16,12.84,12.84,0,0,1,1.83-.13,12,12,0,0,1,1.77.11,7.8,7.8,0,0,1,7.47,8,12.8,12.8,0,0,1-.27,3.58,11,11,0,0,1-.73,2.22,14.22,14.22,0,0,0-.85,1.41l2.57,1.35,1.06.68a13.66,13.66,0,0,0,.74-1.34,12.46,12.46,0,0,1,4.54-3.76,7.79,7.79,0,0,1,10.67,2.48,12.63,12.63,0,0,1,1.78,3.12,10.47,10.47,0,0,1,.78,3.65l4.07-.08a11.88,11.88,0,0,1,2.26-6.9,7.8,7.8,0,0,1,10.55-2.93,12.87,12.87,0,0,1,3.06,1.88,10.49,10.49,0,0,1,2.44,2.83l3.52-2h0a10.47,10.47,0,0,1-1.23-3.53,12.7,12.7,0,0,1-.1-3.6,7.8,7.8,0,0,1,7.8-7.65,13.49,13.49,0,0,1,3.62.18,10.63,10.63,0,0,1,3.51,1.32l2.12-3.48a10.63,10.63,0,0,1-2.79-2.51,13.5,13.5,0,0,1-1.81-3.11A7.82,7.82,0,0,1,192,140.24a13.27,13.27,0,0,1,3.26-1.59,10.7,10.7,0,0,1,3.72-.53v0h.18Zm-9.33.78a11.86,11.86,0,0,0-4.66,15.39,18.48,18.48,0,0,0,.95,1.93,18.64,18.64,0,0,0-2.18,0,11.83,11.83,0,0,0-11.5,11.25,16.62,16.62,0,0,0-.11,2.17,15.6,15.6,0,0,0-1.92-1,11.82,11.82,0,0,0-15.5,4.34,18,18,0,0,0-1.13,1.84,15.68,15.68,0,0,0-1.21-1.79,11.82,11.82,0,0,0-15.68-3.62c-.36.18-.75.39-1.15.63,0-.47,0-.95,0-1.4a11.82,11.82,0,0,0-11-11.77,16.62,16.62,0,0,0-2.17-.14,19.37,19.37,0,0,0,1-1.92,11.87,11.87,0,0,0-4-15.59,19,19,0,0,0-1.81-1.16,19.32,19.32,0,0,0,1.84-1.18,11.87,11.87,0,0,0,4-15.6,19,19,0,0,0-1-1.89,16.69,16.69,0,0,0,2.17-.14,11.82,11.82,0,0,0,11-11.75c0-.46,0-.94,0-1.42.4.24.8.45,1.16.63a11.81,11.81,0,0,0,15.66-3.61,15.86,15.86,0,0,0,1.23-1.81,18,18,0,0,0,1.13,1.85,11.82,11.82,0,0,0,15.47,4.34,15.67,15.67,0,0,0,1.94-1,16.58,16.58,0,0,0,.11,2.16,11.83,11.83,0,0,0,11.52,11.25,18.1,18.1,0,0,0,2.16,0,18.73,18.73,0,0,0-1,2,11.86,11.86,0,0,0,4.71,15.39c.42.28.84.52,1.26.75C190.67,136.31,190.23,136.57,189.79,136.85Z"/><polygon class="cls-5" points="154.76 115.04 160.92 127.54 174.71 129.54 164.73 139.26 167.09 152.99 154.76 146.51 142.43 152.99 144.78 139.26 134.81 129.54 148.59 127.54 154.76 115.04"/></g></g></svg>