<?xml version="1.0" encoding="UTF-8"?>
<svg width="23px" height="23px" viewBox="0 0 23 23" version="1.1" xmlns="http://www.w3.org/2000/svg" xmlns:xlink="http://www.w3.org/1999/xlink">
    <!-- Generator: Sketch 51.2 (57519) - http://www.bohemiancoding.com/sketch -->
    <title>Group 3</title>
    <desc>Created with Sketch.</desc>
    <defs>
        <polygon id="path-1" points="7 3.9997 14.667 3.9997 14.667 19.1876 7 19.1876"></polygon>
    </defs>
    <g id="Page-1" stroke="none" stroke-width="1" fill="none" fill-rule="evenodd">
        <g id="Group-3">
            <circle id="Oval" fill="#D8D8D8" fill-rule="nonzero" cx="11.5" cy="11.5" r="11.5"></circle>
            <mask id="mask-2" fill="white">
                <use xlink:href="#path-1"></use>
            </mask>
            <g id="Clip-2"></g>
            <path d="M9.0836,19.1876 C8.9376,19.1116 8.9036,18.9856 8.9036,18.8296 C8.9076,16.6496 8.9066,14.4696 8.9066,12.2896 L8.9066,12.0916 L8.7406,12.0916 C8.2756,12.0916 7.8116,12.0916 7.3466,12.0906 C7.0786,12.0906 7.0006,12.0136 7.0006,11.7486 C6.9996,10.9816 6.9996,10.2156 7.0006,9.4496 C7.0006,9.1836 7.0786,9.1056 7.3456,9.1056 C7.8346,9.1046 8.3236,9.1046 8.8126,9.1046 L8.9926,9.1046 L8.9926,8.9356 C8.9926,8.4366 8.9926,7.9366 8.9916,7.4376 C8.9916,7.1516 8.9636,6.8626 8.9956,6.5816 C9.0966,5.7246 9.5626,5.0896 10.2686,4.6226 C10.9356,4.1816 11.6776,3.9966 12.4736,3.9996 C13.0906,4.0026 13.7086,3.9996 14.3266,4.0006 C14.5866,4.0006 14.6666,4.0786 14.6666,4.3336 C14.6676,5.0446 14.6676,5.7566 14.6666,6.4686 C14.6666,6.7326 14.5876,6.8086 14.3186,6.8106 C13.8446,6.8126 13.3696,6.8056 12.8956,6.8166 C12.4676,6.8276 12.2336,7.0606 12.2276,7.4836 C12.2196,8.0166 12.2256,8.5496 12.2256,9.1046 L12.3886,9.1046 C13.0306,9.1046 13.6736,9.1046 14.3166,9.1056 C14.5966,9.1056 14.6876,9.1986 14.6566,9.4746 C14.5696,10.2646 14.4786,11.0546 14.3856,11.8446 C14.3606,12.0506 14.2726,12.1226 14.0566,12.1236 C13.4536,12.1246 12.8516,12.1236 12.2236,12.1236 L12.2236,12.3146 C12.2236,14.4846 12.2226,16.6556 12.2256,18.8256 C12.2256,18.9806 12.1906,19.1066 12.0496,19.1876 L9.0836,19.1876 Z" id="Fill-1" fill="#FFFFFF" mask="url(#mask-2)"></path>
        </g>
    </g>
</svg>