<svg xmlns="http://www.w3.org/2000/svg" viewBox="0 0 189.23 189.23"><defs><style>.cls-1{fill:#fff;stroke:#000;stroke-linecap:round;stroke-linejoin:round;stroke-width:5px;}</style></defs><title>icon-tags</title><g id="Layer_2" data-name="Layer 2"><g id="Layer_1-2" data-name="Layer 1"><rect class="cls-1" x="80.65" y="38.83" width="27.93" height="184.23" rx="13.97" ry="13.97" transform="translate(-36.33 225.57) rotate(-90)"/><rect class="cls-1" x="80.65" y="-32.83" width="27.93" height="184.23" rx="13.97" ry="13.97" transform="translate(35.33 153.9) rotate(-90)"/><path class="cls-1" d="M155.32,2.5a14,14,0,0,1,14,14l-2.57,7.67-6.69,20-9.3,27.79L140.33,103l-10,29.88L122.24,157c-1.44,4.3-2.85,8.6-4.13,12.95-1.16,3.95-1.7,8.58-4.46,11.82A14.05,14.05,0,0,1,103,186.73q-.48,0-1,0c-8.79-.59-14.43-9.67-11.64-18L141.35,16.47A14,14,0,0,1,155.32,2.5Z"/><path class="cls-1" d="M83.65,2.5a14,14,0,0,1,14,14l-2.39,7.14L89,42.34,80.17,68.6l-10,29.75-9.77,29.19-8.22,24.58c-1.71,5.1-3.52,10.18-4.94,15.37-1.26,4.63-1.82,9.77-4.79,13.71a14.06,14.06,0,0,1-11.14,5.55q-.48,0-1,0c-8.79-.59-14.43-9.67-11.64-18L69.69,16.47A14,14,0,0,1,83.65,2.5Z"/></g></g></svg>