<svg xmlns="http://www.w3.org/2000/svg" viewBox="0 0 76.21 71.5"><defs><style>.cls-1,.cls-4{fill:#fff;}.cls-2{fill:#44aeea;}.cls-2,.cls-3,.cls-4{stroke:#000;stroke-linecap:round;stroke-linejoin:round;stroke-width:5px;}.cls-3{fill:none;}</style></defs><title>insurance-scheme-1</title><g id="Layer_2" data-name="Layer 2"><g id="Layer_1-2" data-name="Layer 1"><rect class="cls-1" x="26.35" y="21.65" width="23.5" height="71.21" transform="translate(95.35 19.15) rotate(90)"/><rect class="cls-2" x="16.6" y="-11.6" width="43" height="71.21" transform="translate(62.1 -14.1) rotate(90)"/><polyline class="cls-3" points="73.71 47 73.71 58 2.5 58 2.5 47.5"/><polyline class="cls-3" points="73.71 58 73.71 69 2.5 69 2.5 58.5"/><circle class="cls-4" cx="38.1" cy="24" r="10.16"/><path class="cls-2" d="M71.78,15.73a11,11,0,0,1-11-11"/><path class="cls-2" d="M71.78,32.37a11,11,0,0,0-11,11"/><path class="cls-2" d="M5.14,32.37a11,11,0,0,1,11,11"/><path class="cls-2" d="M5.14,15.73a11,11,0,0,0,11-11"/></g></g></svg>