<svg xmlns="http://www.w3.org/2000/svg" viewBox="0 0 94.75 75.36"><defs><style>.cls-1{fill:#44aeea;}.cls-1,.cls-2,.cls-3{stroke:#000;stroke-linecap:round;stroke-linejoin:round;stroke-width:4px;}.cls-2{fill:#fff;}.cls-3{fill:none;}</style></defs><title>insurance-scheme-3</title><g id="Layer_2" data-name="Layer 2"><g id="Layer_1-2" data-name="Layer 1"><path class="cls-1" d="M61.41,37.52v6.66L45.82,51.26S41.17,52.39,41,59v7.48H92.75V59C92.62,52.39,88,51.26,88,51.26L72.37,44.18V37.52Z"/><path class="cls-2" d="M66.82,39.5h0c-4.36,0-10.65-4.79-10.65-10.65V21.56A10.68,10.68,0,0,1,66.82,10.91h0A10.68,10.68,0,0,1,77.47,21.56v7.29C77.47,34.7,71,39.5,66.82,39.5Z"/><path class="cls-1" d="M26.71,38.26v8.08L7.8,54.92S2.16,56.29,2,64.29v9.07H64.72V64.29c-.16-8-5.8-9.37-5.8-9.37L40,46.33V38.26Z"/><path class="cls-2" d="M47,49.52c-16.28,14.24-27.33,0-27.33,0l6-3.19V38.26H41v8.08Z"/><line class="cls-3" x1="15.39" y1="67.06" x2="15.39" y2="72.55"/><line class="cls-3" x1="50.72" y1="67.06" x2="50.72" y2="72.55"/><path class="cls-2" d="M33.27,41.36h0c-6,0-14.66-6.6-14.66-14.66v-10A14.7,14.7,0,0,1,33.27,2h0A14.7,14.7,0,0,1,47.94,16.66v10C47.94,34.76,39,41.36,33.27,41.36Z"/><polyline class="cls-2" points="18.61 17.72 34.92 17.72 38.33 14.07 40.92 17.72 47.94 18.43"/></g></g></svg>