<svg xmlns="http://www.w3.org/2000/svg" viewBox="0 0 116.76 81.79"><defs><style>.cls-1{fill:#fff;}.cls-1,.cls-2,.cls-3{stroke:#000;stroke-linecap:round;stroke-linejoin:round;stroke-width:5px;}.cls-2{fill:#44aeea;}.cls-3{fill:none;}</style></defs><title>insurance-big-scheme-2</title><g id="Layer_2" data-name="Layer 2"><g id="Layer_1-2" data-name="Layer 1"><path class="cls-1" d="M9.39,58.28c.87-20.06,10.25-34.62,28-44.15,7.75-2.62,28.67-6.25,41.92.12a49,49,0,0,1,20.36,18,48.08,48.08,0,0,1,7.59,26,7.34,7.34,0,0,1,5,2.14,6.51,6.51,0,0,1,2,4.51c0,2.57.08,5.14,0,7.7A6.89,6.89,0,0,1,107,79.29H9.69a6.92,6.92,0,0,1-7.14-6.92c-.05-2.08.07-4.16,0-6.24A7.19,7.19,0,0,1,9.39,58.28Z"/><path class="cls-2" d="M44.43,19.92q0-5.14,0-10.27a6.91,6.91,0,0,1,7.11-7.14q6.88,0,13.76,0a6.9,6.9,0,0,1,7,7q0,10.41,0,20.82a6.94,6.94,0,0,1-7,7.06q-6.92,0-13.85,0a7,7,0,0,1-7.05-7.12Q44.42,25.1,44.43,19.92Z"/><line class="cls-3" x1="28.4" y1="19.96" x2="35.4" y2="37.42"/><line class="cls-3" x1="88.32" y1="19.96" x2="81.32" y2="37.42"/><line class="cls-3" x1="9.39" y1="58.28" x2="112.24" y2="58.28"/></g></g></svg>