<svg xmlns="http://www.w3.org/2000/svg" viewBox="0 0 90.33 72.71"><defs><style>.cls-1{fill:#fff;}.cls-1,.cls-2,.cls-3{stroke:#000;stroke-linecap:round;stroke-linejoin:round;stroke-width:5px;}.cls-2{fill:#44aeea;}.cls-3{fill:none;}</style></defs><title>item-to-insure-1</title><g id="Layer_2" data-name="Layer 2"><g id="Layer_1-2" data-name="Layer 1"><rect class="cls-1" x="2.5" y="39.54" width="20.55" height="30.67" rx="4.94" ry="4.94"/><rect class="cls-1" x="67.28" y="39.54" width="20.55" height="30.67" rx="4.94" ry="4.94"/><path class="cls-2" d="M15.65,28H74.94A12.89,12.89,0,0,1,87.83,40.9V58.67a0,0,0,0,1,0,0H2.5a0,0,0,0,1,0,0V41.15A13.15,13.15,0,0,1,15.65,28Z"/><path class="cls-3" d="M83.3,31,73,10a10.85,10.85,0,0,0-2-2.81A14.72,14.72,0,0,0,60.21,2.5H30A14.72,14.72,0,0,0,19.17,7.15a10.85,10.85,0,0,0-2,2.81L7,31"/><rect class="cls-1" x="13.77" y="42.34" width="16.02" height="6.12" rx="1" ry="1"/><rect class="cls-1" x="60.53" y="42.34" width="16.02" height="6.12" rx="1" ry="1"/></g></g></svg>