<svg xmlns="http://www.w3.org/2000/svg" viewBox="0 0 470.04 470.04"><defs><style>.cls-1{fill:#fff;}.cls-2,.cls-5{fill:#1b81c6;}.cls-3,.cls-4,.cls-6{fill:none;stroke-linecap:round;}.cls-3,.cls-5,.cls-6{stroke:#000;}.cls-3,.cls-5{stroke-miterlimit:10;}.cls-3{stroke-width:17px;}.cls-4{stroke:#fff;stroke-width:11px;}.cls-4,.cls-6{stroke-linejoin:round;}.cls-5,.cls-6{stroke-width:14px;}</style></defs><title>leasing-condition-item-4</title><g id="Layer_2" data-name="Layer 2"><g id="Layer_1-2" data-name="Layer 1"><polygon class="cls-1" points="357.94 319.24 291.59 385.58 122.23 385.58 122.23 81.19 357.94 81.19 357.94 319.24"/><path d="M124.39,392.84c-1.33-.54-2.71-1-4-1.63-6.23-3.12-9.59-8.21-9.73-15.16-.16-7.91-.08-154,0-161.92,0-4.81,3.13-8.22,7.43-8.33,4.5-.11,7.87,3.18,8,8.16.14,6.87,0,151.93,0,158.8,0,4.58,0,4.59,4.63,4.59H283v-3.63q0-20.6,0-41.21c0-12.2,6.74-19,18.86-19q20.6,0,41.21,0h3.64c.06-1.36.16-2.46.16-3.57q0-108.64.06-217.28c0-3.06-.74-4.12-4-4.11q-106.45.13-212.91,0c-3.2,0-4,1-4,4.07.1,37.67.05,110.14.08,147.81,0,3.37-.5,6.42-3.55,8.48a7.62,7.62,0,0,1-11.84-5.33,27.28,27.28,0,0,1-.08-3.43c0-37.67,0-110.14,0-147.81,0-12.56,6.68-19.21,19.28-19.21H343.12c12.54,0,19.21,6.7,19.21,19.29q0,113,.06,226a13.39,13.39,0,0,1-4.23,10.23c-20,19.87-39.9,39.86-59.89,59.75a51.24,51.24,0,0,1-5.9,4.42ZM335,329.21a3.4,3.4,0,0,0-.84-.22c-11,0-22.06,0-33.09-.05-2.09,0-2.65.95-2.64,2.87.05,10.93,0,21.85,0,32.78a4.73,4.73,0,0,0,.18,1L335,329.21"/><path class="cls-2" d="M335,329.21l-36.34,36.35a4.73,4.73,0,0,1-.18-1c0-10.93,0-21.85,0-32.78,0-1.92.55-2.88,2.64-2.87,11,.06,22.06,0,33.09.05a3.4,3.4,0,0,1,.84.22"/><line class="cls-3" x1="167.38" y1="139.84" x2="302.66" y2="139.84"/><line class="cls-3" x1="167.38" y1="183.02" x2="302.66" y2="183.02"/><line class="cls-3" x1="167.38" y1="226.21" x2="302.66" y2="226.21"/><line class="cls-3" x1="167.38" y1="269.4" x2="302.66" y2="269.4"/><circle class="cls-4" cx="235.02" cy="235.02" r="229.52"/><circle class="cls-5" cx="116.79" cy="163.04" r="42.38"/><polyline class="cls-6" points="101.17 162.39 114.17 180.07 134.17 149.39"/></g></g></svg>