<svg xmlns="http://www.w3.org/2000/svg" viewBox="0 0 180 105.86"><defs><style>.cls-1{fill:#44aeea;}.cls-1,.cls-2{stroke:#000;stroke-linecap:round;stroke-linejoin:round;stroke-width:8px;}.cls-2{fill:#fff;}</style></defs><title>leasing-item-3</title><g id="Layer_2" data-name="Layer 2"><g id="Layer_1-2" data-name="Layer 1"><circle class="cls-1" cx="151.17" cy="90.73" r="11.13"/><circle class="cls-1" cx="33.67" cy="90.73" r="11.13"/><path class="cls-2" d="M114,4H12a8,8,0,0,0-8,8V79a8,8,0,0,0,8,8h1.23a20.77,20.77,0,0,1,40.88,0H114a8,8,0,0,0,8-8V12A8,8,0,0,0,114,4Z"/><path class="cls-2" d="M144.5,19.5H122V87h8.9a20.61,20.61,0,0,1,40.54,0H176V61.6C176,38.45,161.82,19.5,144.5,19.5Z"/><path class="cls-1" d="M130.92,33.42v15.5h30.25s-.25-17.25-16.75-17.25S130.92,33.42,130.92,33.42Z"/></g></g></svg>