<svg xmlns="http://www.w3.org/2000/svg" viewBox="0 0 290.66 274.9"><defs><style>.cls-1,.cls-3{fill:none;}.cls-1{stroke:#fff;}.cls-1,.cls-3,.cls-4{stroke-linecap:round;stroke-linejoin:round;stroke-width:7px;}.cls-2,.cls-4{fill:#fff;}.cls-3,.cls-4{stroke:#000;}.cls-5{fill:#44aeea;}</style></defs><title>leasing-condition-item-2</title><g id="Layer_2" data-name="Layer 2"><g id="Layer_1-2" data-name="Layer 1"><path class="cls-1" d="M273,107.19A134,134,0,0,0,36.25,55.88"/><path class="cls-1" d="M18.23,187.45a134,134,0,0,0,236.56,23"/><line class="cls-1" x1="46.1" y1="195.41" x2="16.34" y2="182.57"/><line class="cls-1" x1="3.5" y1="212.33" x2="16.34" y2="182.57"/><line class="cls-1" x1="243.76" y1="92.88" x2="272.85" y2="107.19"/><line class="cls-1" x1="287.16" y1="78.11" x2="272.85" y2="107.19"/><path class="cls-2" d="M94.27,200.92H73.33a9.71,9.71,0,0,1-9.68-9.68V150.45a9.71,9.71,0,0,1,9.68-9.68H94.27a9.71,9.71,0,0,1,9.68,9.68v40.78a9.71,9.71,0,0,1-9.68,9.68"/><rect class="cls-3" x="63.65" y="140.77" width="40.3" height="60.15" rx="9.68" ry="9.68"/><path class="cls-2" d="M221.34,200.92H200.4a9.71,9.71,0,0,1-9.68-9.68V150.45a9.71,9.71,0,0,1,9.68-9.68h20.94a9.71,9.71,0,0,1,9.68,9.68v40.78a9.71,9.71,0,0,1-9.68,9.68"/><path class="cls-4" d="M222.13,124,202,82.75a21.32,21.32,0,0,0-3.84-5.52,28.88,28.88,0,0,0-21.33-9.12H117.68a28.88,28.88,0,0,0-21.33,9.12,21.32,21.32,0,0,0-3.84,5.52L72.39,124Z"/><rect class="cls-3" x="190.72" y="140.77" width="40.3" height="60.15" rx="9.68" ry="9.68"/><path class="cls-5" d="M231,178.28H63.65V143.92a25.87,25.87,0,0,1,25.79-25.79h116.3A25.36,25.36,0,0,1,231,143.42Z"/><path class="cls-3" d="M231,178.28H63.65V143.92a25.87,25.87,0,0,1,25.79-25.79h116.3A25.36,25.36,0,0,1,231,143.42Z"/><path class="cls-2" d="M115.23,158.26H87.73a2,2,0,0,1-2-2v-8.09a2,2,0,0,1,2-2h27.51a2,2,0,0,1,2,2v8.09a2,2,0,0,1-2,2"/><rect class="cls-3" x="85.76" y="146.24" width="31.43" height="12.01" rx="1.96" ry="1.96"/><path class="cls-2" d="M207,158.26H179.44a2,2,0,0,1-2-2v-8.09a2,2,0,0,1,2-2H207a2,2,0,0,1,2,2v8.09a2,2,0,0,1-2,2"/><rect class="cls-3" x="177.48" y="146.24" width="31.43" height="12.01" rx="1.96" ry="1.96"/></g></g></svg>