<svg xmlns="http://www.w3.org/2000/svg" viewBox="0 0 274.86 304.13"><defs><style>.cls-1,.cls-3{fill:none;}.cls-1{stroke:#fff;}.cls-1,.cls-3,.cls-4{stroke-linecap:round;stroke-linejoin:round;stroke-width:7px;}.cls-2,.cls-4{fill:#fff;}.cls-3,.cls-4{stroke:#000;}.cls-5{fill:#44aeea;}</style></defs><title>leasing-condition-item-1</title><g id="Layer_2" data-name="Layer 2"><g id="Layer_1-2" data-name="Layer 1"><path class="cls-1" d="M203.83,253.77a133.93,133.93,0,1,0-132.8,0"/><line class="cls-1" x1="137.62" y1="300.63" x2="137.62" y2="233.41"/><line class="cls-1" x1="109.37" y1="272.57" x2="137.43" y2="300.63"/><line class="cls-1" x1="165.5" y1="272.57" x2="137.43" y2="300.63"/><path class="cls-2" d="M84.36,196.54H63.43a9.71,9.71,0,0,1-9.68-9.68V146.08a9.71,9.71,0,0,1,9.68-9.68H84.36A9.71,9.71,0,0,1,94,146.08v40.78a9.71,9.71,0,0,1-9.68,9.68"/><rect class="cls-3" x="53.74" y="136.39" width="40.3" height="60.15" rx="9.68" ry="9.68"/><path class="cls-2" d="M211.44,196.54H190.5a9.71,9.71,0,0,1-9.68-9.68V146.08a9.71,9.71,0,0,1,9.68-9.68h20.94a9.71,9.71,0,0,1,9.68,9.68v40.78a9.71,9.71,0,0,1-9.68,9.68"/><rect class="cls-3" x="180.82" y="136.39" width="40.3" height="60.15" rx="9.68" ry="9.68"/><path class="cls-4" d="M212.23,119.64,192.11,78.38a21.32,21.32,0,0,0-3.84-5.52,28.88,28.88,0,0,0-21.33-9.12H107.78a28.88,28.88,0,0,0-21.33,9.12,21.32,21.32,0,0,0-3.84,5.52L62.49,119.64Z"/><path class="cls-5" d="M221.12,173.91H53.74V139.54a25.87,25.87,0,0,1,25.79-25.79h116.3A25.36,25.36,0,0,1,221.12,139Z"/><path class="cls-3" d="M221.12,173.91H53.74V139.54a25.87,25.87,0,0,1,25.79-25.79h116.3A25.36,25.36,0,0,1,221.12,139Z"/><path class="cls-2" d="M105.33,153.88H77.82a2,2,0,0,1-2-2v-8.09a2,2,0,0,1,2-2h27.51a2,2,0,0,1,2,2v8.09a2,2,0,0,1-2,2"/><rect class="cls-3" x="75.86" y="141.87" width="31.43" height="12.01" rx="1.96" ry="1.96"/><path class="cls-2" d="M197,153.88H169.54a2,2,0,0,1-2-2v-8.09a2,2,0,0,1,2-2H197a2,2,0,0,1,2,2v8.09a2,2,0,0,1-2,2"/><rect class="cls-3" x="167.58" y="141.87" width="31.43" height="12.01" rx="1.96" ry="1.96"/></g></g></svg>