<svg xmlns="http://www.w3.org/2000/svg" viewBox="0 0 358.46 298.06"><defs><style>.cls-1{fill:#fff;}.cls-1,.cls-2{stroke:#000;stroke-linecap:round;stroke-linejoin:round;stroke-width:12px;}.cls-2{fill:#44aeea;}</style></defs><title>leasing-item-7</title><g id="Layer_2" data-name="Layer 2"><g id="Layer_1-2" data-name="Layer 1"><polygon class="cls-1" points="107.08 119.94 94.99 119.94 82.91 119.94 73.74 292.06 94.99 292.06 116.24 292.06 107.08 119.94"/><polygon class="cls-2" points="101.65 6 96.42 6 93.07 6 87.83 6 79.24 95.75 93.07 95.75 96.42 95.75 110.24 95.75 101.65 6"/><polygon class="cls-2" points="6 146.67 8.61 151.21 10.28 154.11 12.88 158.66 94.99 121.4 88.11 109.42 86.44 106.51 79.55 94.52 6 146.67"/><polygon class="cls-2" points="182.64 146.67 180.03 151.21 178.37 154.11 175.76 158.66 93.65 121.4 100.53 109.42 102.2 106.51 109.09 94.52 182.64 146.67"/><circle class="cls-1" cx="94.99" cy="104.44" r="15.25"/><polygon class="cls-1" points="194.72 119.94 182.64 119.94 170.56 119.94 161.39 292.06 182.64 292.06 203.89 292.06 194.72 119.94"/><polygon class="cls-2" points="189.3 6 184.07 6 180.72 6 175.48 6 166.89 95.75 180.72 95.75 184.07 95.75 197.89 95.75 189.3 6"/><polygon class="cls-2" points="93.65 146.67 96.26 151.21 97.93 154.11 100.53 158.66 182.64 121.4 175.76 109.42 174.09 106.51 167.2 94.52 93.65 146.67"/><polygon class="cls-2" points="270.29 146.67 267.68 151.21 266.01 154.11 263.41 158.66 181.3 121.4 188.18 109.42 189.85 106.51 196.74 94.52 270.29 146.67"/><circle class="cls-1" cx="182.64" cy="104.44" r="15.25"/><polygon class="cls-1" points="276.89 119.94 264.81 119.94 252.72 119.94 243.56 292.06 264.81 292.06 286.06 292.06 276.89 119.94"/><polygon class="cls-2" points="271.47 6 266.23 6 262.88 6 257.65 6 249.06 95.75 262.88 95.75 266.23 95.75 280.06 95.75 271.47 6"/><polygon class="cls-2" points="175.82 146.67 178.42 151.21 180.09 154.11 182.7 158.66 264.81 121.4 257.92 109.42 256.25 106.51 249.37 94.52 175.82 146.67"/><polygon class="cls-2" points="352.46 146.67 349.85 151.21 348.18 154.11 345.57 158.66 263.46 121.4 270.35 109.42 272.02 106.51 278.9 94.52 352.46 146.67"/><circle class="cls-1" cx="264.81" cy="104.44" r="15.25"/></g></g></svg>