<svg xmlns="http://www.w3.org/2000/svg" viewBox="0 0 222.27 95.9"><defs><style>.cls-1{fill:#fff;}.cls-1,.cls-2{stroke:#000;stroke-linecap:round;stroke-linejoin:round;stroke-width:8px;}.cls-2{fill:#44aeea;}</style></defs><title>leasing-item-1</title><g id="Layer_2" data-name="Layer 2"><g id="Layer_1-2" data-name="Layer 1"><path class="cls-1" d="M78.08,16.55,49.83,34.3s-45,8-45.75,26.25,3.75,21.75,18.25,22C22.08,58.3,41,57.55,41,57.55s21.54-1,21.54,25l106,.25s-2-22.5,19.25-23.75,21,19.25,21,19.25,11-.25,9.25-20.25c-7.25-3-4.75-2.25-4.75-2.25l.5-20.25-21-24.5s-5.5-7.75-24-7S97.08,7.3,97.08,7.3,89.86,9.15,78.08,16.55Z"/><circle class="cls-1" cx="42.58" cy="80.78" r="11.13"/><circle class="cls-1" cx="189.08" cy="80.78" r="11.13"/><path class="cls-2" d="M130.19,14.82s-28.74.7-38.4,7.68S74.45,37.17,77.6,39.26s52.6-.47,52.6-.47L134,20.06S135.45,14.57,130.19,14.82Z"/><path class="cls-2" d="M143.2,20.56l-2.06,17.76,51.13-.75s-2.9-16.56-12-21.44c-11.62-3.5-31.17-1.32-31.17-1.32S143.63,15.19,143.2,20.56Z"/></g></g></svg>