<svg xmlns="http://www.w3.org/2000/svg" viewBox="0 0 145.69 204.96"><defs><style>.cls-1{fill:#44aeea;}.cls-1,.cls-2,.cls-3{stroke:#000;stroke-linecap:round;stroke-linejoin:round;stroke-width:8px;}.cls-2{fill:#fff;}.cls-3{fill:none;}</style></defs><title>leasing-item-4</title><g id="Layer_2" data-name="Layer 2"><g id="Layer_1-2" data-name="Layer 1"><polygon class="cls-1" points="87.84 20.13 78.34 20.13 65.09 20.13 55.59 20.13 45.22 47.63 65.09 47.63 78.34 47.63 98.22 47.63 87.84 20.13"/><rect class="cls-2" x="24.59" y="37.63" width="96.5" height="125.67" rx="8.35" ry="8.35"/><line class="cls-3" x1="62.72" y1="20.13" x2="78.84" y2="4"/><line class="cls-3" x1="76.34" y1="20.13" x2="92.47" y2="4"/><rect class="cls-1" x="24.59" y="74.63" width="96.5" height="47.67"/><rect class="cls-1" x="47.47" y="49.74" width="50.75" height="12.71"/><circle class="cls-1" cx="47.47" cy="142.12" r="9.5"/><circle class="cls-1" cx="98.22" cy="142.12" r="9.5"/><polygon class="cls-1" points="106.35 163.29 74.67 163.29 71.02 163.29 39.33 163.29 4 200.96 71.02 200.96 74.67 200.96 141.69 200.96 106.35 163.29"/><line class="cls-3" x1="62.72" y1="163.29" x2="47.47" y2="200.96"/><line class="cls-3" x1="81.09" y1="163.29" x2="96.34" y2="200.96"/><line class="cls-3" x1="24.59" y1="179" x2="119.43" y2="179"/></g></g></svg>