<svg xmlns="http://www.w3.org/2000/svg" viewBox="0 0 222.27 115.24"><defs><style>.cls-1{fill:#44aeea;}.cls-1,.cls-2{stroke:#000;stroke-linecap:round;stroke-linejoin:round;stroke-width:8px;}.cls-2{fill:#fff;}</style></defs><title>leasing-item-2</title><g id="Layer_2" data-name="Layer 2"><g id="Layer_1-2" data-name="Layer 1"><polygon class="cls-1" points="181.5 23.47 97.9 26.6 112.85 7.01 178 4 181.5 23.47"/><path class="cls-2" d="M78.08,35.89,49.83,53.64s-45,8-45.75,26.25,3.75,21.75,18.25,22c-.25-24.25,18.71-25,18.71-25s21.54-1,21.54,25l106,.25s-2-22.5,19.25-23.75,21,19.25,21,19.25,11-.25,9.25-20.25c-7.25-3-4.75-2.25-4.75-2.25l.5-20.25-21-24.5s-5.5-7.75-24-7-71.75,3.25-71.75,3.25S89.86,28.49,78.08,35.89Z"/><circle class="cls-2" cx="42.58" cy="100.12" r="11.13"/><circle class="cls-2" cx="189.08" cy="100.12" r="11.13"/><path class="cls-1" d="M130.19,34.16s-28.74.7-38.4,7.68S74.45,56.5,77.6,58.6s52.6-.47,52.6-.47L134,39.4S135.45,33.9,130.19,34.16Z"/><path class="cls-1" d="M143.2,39.9l-2.06,17.76,51.13-.75s-2.9-16.56-12-21.44c-11.62-3.5-31.17-1.32-31.17-1.32S143.63,34.53,143.2,39.9Z"/></g></g></svg>