<svg xmlns="http://www.w3.org/2000/svg" viewBox="0 0 192.67 127.67"><defs><style>.cls-1{fill:#fff;}.cls-1,.cls-2,.cls-3{stroke:#000;stroke-linecap:round;stroke-linejoin:round;stroke-width:8px;}.cls-2{fill:#44aeea;}.cls-3{fill:none;}</style></defs><title>leasing-item-5</title><g id="Layer_2" data-name="Layer 2"><g id="Layer_1-2" data-name="Layer 1"><path class="cls-1" d="M180.67,33.08H140V91.33h40.67c4.4,0,8-3.08,8-6.85V39.94C188.67,36.17,185.07,33.08,180.67,33.08Z"/><path class="cls-2" d="M183.46,47H157V62.21h26.44c2.86,0,5.2-.81,5.2-1.79V48.79C188.67,47.81,186.33,47,183.46,47Z"/><rect class="cls-2" x="26.67" y="59.86" width="112.29" height="31.47"/><path class="cls-1" d="M149,4H95.33V24H4V49.83a22.57,22.57,0,0,0,22.5,22.5h77A22.57,22.57,0,0,0,126,49.83V20.67h23a8,8,0,0,0,8-8V12A8,8,0,0,0,149,4Z"/><circle class="cls-1" cx="36.67" cy="98" r="25.67"/><circle class="cls-1" cx="138.96" cy="98" r="25.67"/><circle class="cls-2" cx="36.67" cy="98" r="10"/><circle class="cls-2" cx="138.96" cy="98" r="10"/><line class="cls-3" x1="43" y1="72.33" x2="43" y2="47"/><line class="cls-3" x1="68.31" y1="72.33" x2="68.31" y2="47"/><line class="cls-3" x1="93.98" y1="72.33" x2="93.98" y2="47"/></g></g></svg>