<svg xmlns="http://www.w3.org/2000/svg" viewBox="0 0 398.25 409.54"><defs><style>.cls-1{fill:#fff;}.cls-2{fill:#4dade1;}</style></defs><title>like</title><g id="Layer_2" data-name="Layer 2"><g id="Layer_1-2" data-name="Layer 1"><path class="cls-1" d="M389.11,274c12.25-18,12.17-38.12-.11-56.06a6.68,6.68,0,0,1-.83-6.57C394,193,390.83,176.58,376.77,163c-8.06-7.83-18.21-11.9-29-14.28-23.73-5.22-47.46-3.12-71.13.5-8.14,1.24-16.19,3-24.87,4.65.18-3.27-.08-6.25.57-9,3.08-13.07,6.05-26.18,9.75-39.08,5.11-17.85,9.79-35.65,8.4-54.53C268.29,21.64,248.22,1.62,218.69,0,208.45-.51,200.18,4.54,196.14,14c-3.88,9-4.49,18.54-3.81,28.23.19,2.73.52,5.77-.41,8.21-12.94,33.89-27.57,67-47.39,97.52-5.53,8.53-12.76,16-19.33,23.81-3.5,4.17-7.6,7.87-10.8,12.24-3.66,5-6.61,10.49-9.94,15.88-6.37-3.42-13.17-4.13-20.19-4.08-15.47.11-30.93,0-46.4,0C15.15,195.89.05,211,0,233.73q-.07,67.2,0,134.4a42.79,42.79,0,0,0,1.28,11.06c4.64,17,18,26.91,36,27,16.4.11,32.8,0,49.2,0a41.33,41.33,0,0,0,18.49-4.37,14.67,14.67,0,0,1,7.83-1.59c42.11,5.3,84.33,8.44,126.79,8.14,5.42,0,10.85.73,16.27,1.13h29.6c4.47-.54,8.94-1,13.41-1.61,17.87-2.38,35.09-6.77,49.89-17.67,15-11,22.64-26,21.79-44.69a11.38,11.38,0,0,1,3.44-9.41c14.29-15,18.9-32.68,13.59-52.69C386.68,279.78,387,277.16,389.11,274ZM100.5,367.74c0,10.67-4.7,15.3-15.42,15.31q-24,0-48,0c-8.83,0-13.92-5-13.94-13.85q-.06-34.17,0-68.35,0-33.59,0-67.16c0-10.19,4.65-14.83,14.92-14.85q23.79-.06,47.57,0c10.17,0,14.83,4.73,14.84,15Q100.52,300.79,100.5,367.74ZM366.65,265.47c-5.37,6.07-6.4,11.75-2.93,19.23,6.48,14,2.81,28.55-9.74,38.68-6.34,5.11-8.57,10.42-7,18.65,2.86,14.69-3.53,25.8-17.57,33.29a82.94,82.94,0,0,1-38.73,10c-33,.18-66.08-.14-99.09-1.32-22.72-.82-45.39-3.4-68-5.19V345q0-54.59-.06-109.18c0-4.37-1.46-8.82-.94-13.07a51.13,51.13,0,0,1,4.18-14.71,62.76,62.76,0,0,1,15.31-20.74c13.1-11.85,22.47-26.65,31.15-41.82,16.64-29.06,30.16-59.6,41.75-91,1.22-3.31.62-7.31.72-11,.14-5.31-.08-10.63.27-15.92.3-4.44,1.51-5.09,5.94-4.3,15.33,2.74,24.1,12.82,25.39,28.94,1,12.42-1.29,24.39-4.52,36.27-4.29,15.79-9.16,31.45-12.52,47.43-1.68,8-1.44,16.72-.53,24.94,1.37,12.38,11.58,18.76,23.69,16.12,23.34-5.08,46.78-9.76,70.82-8.07a109.42,109.42,0,0,1,26.58,4.79c16.06,5.32,21.46,19.64,13.61,34.6-3.69,7-3,12.42,2.3,18.4C378,239.41,377.9,252.77,366.65,265.47Z"/><path d="M389.11,274c12.25-18,12.17-38.12-.11-56.06a6.68,6.68,0,0,1-.83-6.57C394,193,390.83,176.58,376.77,163c-8.06-7.83-18.21-11.9-29-14.28-23.73-5.22-47.46-3.12-71.13.5-8.14,1.24-16.19,3-24.87,4.65.18-3.27-.08-6.25.57-9,3.08-13.07,6.05-26.18,9.75-39.08,5.11-17.85,9.79-35.65,8.4-54.53C268.29,21.64,248.22,1.62,218.69,0,208.45-.51,200.18,4.54,196.14,14c-3.88,9-4.49,18.54-3.81,28.23.19,2.73.52,5.77-.41,8.21-12.94,33.89-27.57,67-47.39,97.52-5.53,8.53-12.76,16-19.33,23.81-3.5,4.17-7.6,7.87-10.8,12.24-3.66,5-6.61,10.49-9.94,15.88-6.37-3.42-13.17-4.13-20.19-4.08-15.47.11-30.93,0-46.4,0C15.15,195.89.05,211,0,233.73q-.07,67.2,0,134.4a42.79,42.79,0,0,0,1.28,11.06c4.64,17,18,26.91,36,27,16.4.11,32.8,0,49.2,0a41.33,41.33,0,0,0,18.49-4.37,14.67,14.67,0,0,1,7.83-1.59c42.11,5.3,84.33,8.44,126.79,8.14,5.42,0,10.85.73,16.27,1.13h29.6c4.47-.54,8.94-1,13.41-1.61,17.87-2.38,35.09-6.77,49.89-17.67,15-11,22.64-26,21.79-44.69a11.38,11.38,0,0,1,3.44-9.41c14.29-15,18.9-32.68,13.59-52.69C386.68,279.78,387,277.16,389.11,274ZM100.5,367.74c0,10.67-4.7,15.3-15.42,15.31q-24,0-48,0c-8.83,0-13.92-5-13.94-13.85q-.06-34.17,0-68.35,0-33.59,0-67.16c0-10.19,4.65-14.83,14.92-14.85q23.79-.06,47.57,0c10.17,0,14.83,4.73,14.84,15Q100.52,300.79,100.5,367.74ZM366.65,265.47c-5.37,6.07-6.4,11.75-2.93,19.23,6.48,14,2.81,28.55-9.74,38.68-6.34,5.11-8.57,10.42-7,18.65,2.86,14.69-3.53,25.8-17.57,33.29a82.94,82.94,0,0,1-38.73,10c-33,.18-66.08-.14-99.09-1.32-22.72-.82-45.39-3.4-68-5.19V345q0-54.59-.06-109.18c0-4.37-1.46-8.82-.94-13.07a51.13,51.13,0,0,1,4.18-14.71,62.76,62.76,0,0,1,15.31-20.74c13.1-11.85,22.47-26.65,31.15-41.82,16.64-29.06,30.16-59.6,41.75-91,1.22-3.31.62-7.31.72-11,.14-5.31-.08-10.63.27-15.92.3-4.44,1.51-5.09,5.94-4.3,15.33,2.74,24.1,12.82,25.39,28.94,1,12.42-1.29,24.39-4.52,36.27-4.29,15.79-9.16,31.45-12.52,47.43-1.68,8-1.44,16.72-.53,24.94,1.37,12.38,11.58,18.76,23.69,16.12,23.34-5.08,46.78-9.76,70.82-8.07a109.42,109.42,0,0,1,26.58,4.79c16.06,5.32,21.46,19.64,13.61,34.6-3.69,7-3,12.42,2.3,18.4C378,239.41,377.9,252.77,366.65,265.47Z"/><path class="cls-1" d="M363.72,284.7c6.48,14,2.81,28.55-9.74,38.68-6.34,5.11-8.57,10.42-7,18.65,2.86,14.69-3.53,25.8-17.57,33.29a82.94,82.94,0,0,1-38.73,10c-33,.18-66.08-.14-99.09-1.32-22.72-.82-45.39-3.4-68-5.19V345q0-54.59-.06-109.18c0-4.37-1.46-8.82-.94-13.07a51.13,51.13,0,0,1,4.18-14.71,62.76,62.76,0,0,1,15.31-20.74c13.1-11.85,22.47-26.65,31.15-41.82,16.64-29.06,30.16-59.6,41.75-91,1.22-3.31.62-7.31.72-11,.14-5.31-.08-10.63.27-15.92.3-4.44,1.51-5.09,5.94-4.3,15.33,2.74,24.1,12.82,25.39,28.94,1,12.42-1.29,24.39-4.52,36.27-4.29,15.79-9.16,31.45-12.52,47.43-1.68,8-1.44,16.72-.53,24.94,1.37,12.38,11.58,18.76,23.69,16.12,23.34-5.08,46.78-9.76,70.82-8.07a109.42,109.42,0,0,1,26.58,4.79c16.06,5.32,21.46,19.64,13.61,34.6-3.69,7-3,12.42,2.3,18.4,11.25,12.67,11.17,26-.08,38.73C361.28,271.54,360.25,277.22,363.72,284.7Z"/><path class="cls-2" d="M100.5,233.84q0,66.95,0,133.9c0,10.67-4.7,15.3-15.42,15.31q-24,0-48,0c-8.83,0-13.92-5-13.94-13.85q-.06-34.17,0-68.35,0-33.59,0-67.16c0-10.19,4.65-14.83,14.92-14.85q23.79-.06,47.57,0C95.83,218.86,100.49,223.57,100.5,233.84Z"/></g></g></svg>