<svg xmlns="http://www.w3.org/2000/svg" viewBox="0 0 199 182"><defs><style>.cls-1{fill:#1b81c6;}.cls-1,.cls-2,.cls-3,.cls-4{stroke:#1b1b1b;stroke-linejoin:round;stroke-width:6px;}.cls-2{fill:#fff;}.cls-3,.cls-4{fill:none;}.cls-4{stroke-linecap:round;}</style></defs><title>maintenance-icon-6</title><g id="Layer_2" data-name="Layer 2"><g id="Layer_1-2" data-name="Layer 1"><rect class="cls-1" x="3" y="25.5" width="193" height="119.5" rx="9.5" ry="9.5"/><path class="cls-2" d="M3,120.5H196a0,0,0,0,1,0,0v15a9.5,9.5,0,0,1-9.5,9.5H12.5A9.5,9.5,0,0,1,3,135.5v-15A0,0,0,0,1,3,120.5Z"/><rect class="cls-2" x="31.87" y="3" width="132.5" height="117.5"/><line class="cls-3" x1="51.37" y1="30" x2="142.37" y2="30"/><line class="cls-3" x1="51.37" y1="50.33" x2="142.37" y2="50.33"/><line class="cls-3" x1="51.37" y1="70.67" x2="142.37" y2="70.67"/><line class="cls-3" x1="51.37" y1="91" x2="142.37" y2="91"/><line class="cls-4" x1="100.35" y1="146.33" x2="100.35" y2="178"/><line class="cls-4" x1="60.85" y1="179" x2="139.85" y2="179"/></g></g></svg>