<svg xmlns="http://www.w3.org/2000/svg" viewBox="0 0 187 168.17"><defs><style>.cls-1{fill:#fff;}.cls-1,.cls-2{stroke:#1b1b1b;stroke-linejoin:round;stroke-width:6px;}.cls-2{fill:#1b81c6;}</style></defs><title>maintenance-icon-4</title><g id="Layer_2" data-name="Layer 2"><g id="Layer_1-2" data-name="Layer 1"><rect class="cls-1" x="14.66" y="129.01" width="84.84" height="22.49" rx="5.67" ry="5.67"/><rect class="cls-1" x="69.58" y="18.97" width="69.47" height="12.43" rx="6.22" ry="6.22" transform="translate(32.01 -54.11) rotate(34.07)"/><rect class="cls-1" x="26.51" y="82.67" width="69.47" height="12.43" rx="6.22" ry="6.22" transform="translate(60.3 -19.05) rotate(34.07)"/><path class="cls-1" d="M180.92,112.43c2.85,1.75,3.92,5.06,2.37,7.35L178.44,127c-1.55,2.3-5,2.53-7.7.52L102,76c-2.59-1.94-3.48-5.34-2-7.55h0c1.5-2.22,5-2.64,7.75-.95Z"/><rect class="cls-2" x="55.74" y="24.7" width="54.21" height="64.47" transform="translate(46.11 -36.64) rotate(34.07)"/><rect class="cls-1" x="3" y="144.51" width="109" height="20.67" rx="5.67" ry="5.67"/></g></g></svg>