<svg xmlns="http://www.w3.org/2000/svg" viewBox="0 0 138.07 128.9"><defs><style>.cls-1{fill:#1b81c6;}.cls-1,.cls-2,.cls-3{stroke:#1b1b1b;stroke-linejoin:round;stroke-width:6px;}.cls-2{fill:#fff;}.cls-3{fill:none;}</style></defs><title>maintenance-icon-7</title><g id="Layer_2" data-name="Layer 2"><g id="Layer_1-2" data-name="Layer 1"><path class="cls-1" d="M3,90.75c2.45,8,12.33,14,24.16,14s21.71-6,24.16-14Z"/><path class="cls-2" d="M72.78,112.07,69.91,3h-2.5L64.53,112.33c-9.43,1.46-16.87,6.78-18.95,13.57H93.9C91.66,118.6,83.23,113,72.78,112.07Z"/><line class="cls-2" x1="27.16" y1="18.75" x2="110.91" y2="18.75"/><polyline class="cls-3" points="3 90.75 27.16 18.75 51.32 90.75"/><line class="cls-3" x1="27.16" y1="18.75" x2="27.16" y2="89.08"/><path class="cls-1" d="M86.75,90.75c2.45,8,12.33,14,24.16,14s21.71-6,24.16-14Z"/><polyline class="cls-3" points="86.75 90.75 110.91 18.75 135.07 90.75"/><line class="cls-3" x1="110.91" y1="18.75" x2="110.91" y2="89.08"/></g></g></svg>