<svg xmlns="http://www.w3.org/2000/svg" viewBox="0 0 384.17 512.06"><defs><style>.cls-1{fill:#1b82c7;stroke:#1b82c7;stroke-linecap:round;stroke-miterlimit:10;stroke-width:24px;}</style></defs><title>menu-docРесурс 1</title><g id="Слой_2" data-name="Слой 2"><g id="Layer_1" data-name="Layer 1"><path d="M21.75,485.29V21.55H266.82v5.88q0,37.76,0,75.5c0,11,3.36,14.37,14.26,14.38q37.74,0,75.49,0h5.83v368h21.66c0-13.79,0-361.83.07-375.61A16.38,16.38,0,0,0,379,97.2q-46-45.87-91.9-91.91A17.09,17.09,0,0,0,274.2,0Q144,.12,13.75.06C4.05.06.1,4,.09,13.7c0,45.78,0,425.81.06,471.59ZM288.46,38.89l57.06,57.05H288.46Z"/><path d="M384.07,458.52H362.59V490.4H21.76V458.52H.09c0,13,.19,26-.08,39-.14,6.65,1.87,11.63,8.08,14.52h368c6.2-2.89,8.18-7.87,8.08-14.52C384,484.65,384,471.75,384.07,458.52Z"/><line class="cls-1" x1="85.09" y1="129.17" x2="205.09" y2="129.17"/><line class="cls-1" x1="85.09" y1="195.17" x2="301.09" y2="195.17"/><line class="cls-1" x1="85.09" y1="261.17" x2="301.09" y2="261.17"/><line class="cls-1" x1="85.09" y1="327.17" x2="301.09" y2="327.17"/><line class="cls-1" x1="85.09" y1="393.17" x2="301.09" y2="393.17"/></g></g></svg>