<svg xmlns="http://www.w3.org/2000/svg" viewBox="0 0 262.9 217.84"><defs><style>.cls-1{fill:none;}.cls-2{fill:#1b82c7;}</style></defs><title>menu-bagРесурс 1</title><g id="Слой_2" data-name="Слой 2"><g id="Layer_1" data-name="Layer 1"><g id="_Группа_" data-name="&lt;Группа&gt;"><g id="_Группа_2" data-name="&lt;Группа&gt;"><path class="cls-1" d="M242.1,43.48H20.8a14,14,0,0,0-13.95,14V183.67A27.4,27.4,0,0,0,34.17,211H228.73a27.4,27.4,0,0,0,27.32-27.32V57.43A14,14,0,0,0,242.1,43.48ZM94.62,155H89.29v.88h-7.5v-1.5h-.25V139.23h.25v-2.37h7.5v.71h5.33Z"/></g><g id="_Группа_3" data-name="&lt;Группа&gt;"><path id="_Контур_" data-name="&lt;Контур&gt;" class="cls-2" d="M188.38,43.48H174.69V26.55A12.87,12.87,0,0,0,161.83,13.7H101.07A12.86,12.86,0,0,0,88.22,26.55V43.48H74.52V26.55A26.58,26.58,0,0,1,101.07,0h60.76a26.58,26.58,0,0,1,26.55,26.55Z"/></g><g id="_Группа_4" data-name="&lt;Группа&gt;"><rect class="cls-2" x="94.62" y="138.47" width="73.75" height="13.7"/><path class="cls-2" d="M251.38,122.54l-.09.09A53.77,53.77,0,0,1,213,138.47H181.45v13.7H213A67.29,67.29,0,0,0,261,132.32l.08-.07Z"/><path class="cls-2" d="M81.79,138.47H49.86a53.73,53.73,0,0,1-38.24-15.84l-9.69,9.68a67.3,67.3,0,0,0,47.93,19.86H81.54V139.23h.25Z"/></g><g id="_Группа_5" data-name="&lt;Группа&gt;"><path id="_Составной_контур_" data-name="&lt;Составной контур&gt;" class="cls-2" d="M228.73,217.84H34.17A34.21,34.21,0,0,1,0,183.67V57.43a20.82,20.82,0,0,1,20.8-20.8H242.1a20.82,20.82,0,0,1,20.8,20.8V183.67A34.21,34.21,0,0,1,228.73,217.84ZM20.8,50.33a7.11,7.11,0,0,0-7.1,7.1V183.67a20.49,20.49,0,0,0,20.47,20.47H228.73a20.49,20.49,0,0,0,20.47-20.47V57.43a7.11,7.11,0,0,0-7.1-7.1Z"/></g><g id="_Группа_6" data-name="&lt;Группа&gt;"><g id="_Группа_7" data-name="&lt;Группа&gt;"><rect id="_Прямоугольник_" data-name="&lt;Прямоугольник&gt;" class="cls-1" x="161.39" y="127.24" width="26.86" height="43.78" rx="4.57" ry="4.57"/></g></g><g id="_Группа_8" data-name="&lt;Группа&gt;"><g id="_Группа_9" data-name="&lt;Группа&gt;"><path id="_Составной_контур_2" data-name="&lt;Составной контур&gt;" class="cls-2" d="M96.94,177.86H79.22A11.43,11.43,0,0,1,67.8,166.44V131.81a11.43,11.43,0,0,1,11.42-11.42H96.94a11.43,11.43,0,0,1,11.42,11.42v34.63A11.43,11.43,0,0,1,96.94,177.86ZM81.5,164.16H94.66V134.08H81.5Z"/></g><g id="_Группа_10" data-name="&lt;Группа&gt;"><path id="_Составной_контур_3" data-name="&lt;Составной контур&gt;" class="cls-2" d="M183.68,177.86H166a11.43,11.43,0,0,1-11.42-11.42V131.81A11.43,11.43,0,0,1,166,120.39h17.72a11.43,11.43,0,0,1,11.42,11.42v34.63A11.43,11.43,0,0,1,183.68,177.86Zm-15.44-13.7H181.4V134.08H168.24Z"/></g></g></g></g></g></svg>