<svg xmlns="http://www.w3.org/2000/svg" viewBox="0 0 397.9 263.38"><defs><style>.cls-1{fill:#1b1b1b;stroke:#000;stroke-miterlimit:10;stroke-width:6px;}</style></defs><title>menu-hands</title><g id="Слой_2" data-name="Слой 2"><g id="Layer_1" data-name="Layer 1"><path class="cls-1" d="M392.74,121.14,338.35,10.26c-3.39-6.89-6.61-8-13.44-4.68Q303.94,15.8,283,26a24.15,24.15,0,0,0-5,3L247.27,45.49c-25-8.6-50.1-17.17-75.1-25.92-12.38-4.33-24.26-3.85-35.86,2.23-7.94,4.16-15.92,4.44-24.37,1.4C93.72,16.66,75.39,10.41,57.09,4.08c-7-2.43-10.13-.91-12.54,6.11Q24.32,69.13,4.12,128.05c-2.46,7.18-1.06,10.12,6,12.55q22.58,7.78,45.19,15.51c3.71,1.27,6.29,1.49,8.26.42L79.64,166a22.28,22.28,0,0,0,3.68,13.08,79.9,79.9,0,0,0,5.26,6.41l-1,1.74c-8.39,14.65-.23,31.68,16.47,34.06,2.78.4,2.76,1.92,3,3.9,1.13,11.56,12.38,20.82,23.88,19.25,4.45-.61,8.75-2.35,13-3.55,1.37,3.16,2.37,6.67,4.26,9.61,6.35,9.9,18.42,12.62,30.11,6.93,29.68-14.45,59.46-28.71,88.91-43.62,11.78-6,23.46-12.57,34-20.46,13.66-10.2,26.1-22,39.16-33a44.26,44.26,0,0,1,8.45-5.76c13-6.53,26.07-12.83,39.12-19.22C395.59,131.56,396.52,128.84,392.74,121.14Zm-114-78.84c-.07-.13-.48-1-.65-1.32ZM55.63,140.51l-36-12.26L56.83,19.71,82.76,28.5c2.16.74,4.28,1.68,6.5,2.21,3,.71,3.37,2,2.37,4.89C84.17,57,76.87,78.43,69.53,99.86,65,113.21,60.4,126.56,55.63,140.51Zm34.07,8a18.93,18.93,0,0,0-6.29,5.75L69.29,146,105.41,41c.44-1.29.9-2.58,1.37-3.91a11.1,11.1,0,0,1,1.4.23c12.26,4.35,24,3.25,35.45-2.9,7.55-4.07,15.34-4.06,23.32-1.28,17.81,6.2,35.65,12.3,53.47,18.44,12,4.15,24,8.32,36.22,12.53a20.77,20.77,0,0,1-.43,2.42c-2.86,8.9-9.61,12.57-19.35,9.55-14.47-4.5-28.75-9.61-43.13-14.41-6.11-2-9.31-.38-11.61,5.6a79,79,0,0,1-4.43,10.14c-8.34,14.91-20.37,24.7-38.14,24.5-7.52-.08-17.9-3.91-25.37-5.37-4.89-1-8.88.64-10,4.57-1.18,4.16.89,7.89,5.73,9.26,5.62,1.59,14.17,5,19.94,5.69a62.59,62.59,0,0,0,26.06-1.85C141.66,121.14,101.43,141.92,89.7,148.55Zm238.8,3.09c-3.36,2.74-6.44,5.81-9.62,8.77-14.6,13.63-30.1,26.18-48,35.22-33,16.66-66.24,32.8-99.4,49.11a11.67,11.67,0,0,1-4.38,1.22c-5.86.34-10.33-5.72-7.67-10.9,1.16-2.26,3.7-4.2,6.07-5.39,15.25-7.67,30.64-15.09,46-22.6,6.11-3,8.1-6.57,6.07-10.88-2.1-4.47-6.23-5.18-12.53-2.1Q170.53,211,136,227.85a24.41,24.41,0,0,1-4.95,2,7.79,7.79,0,0,1-9.65-8.61c.38-4,3.19-5.85,6.38-7.41q34.69-17,69.37-33.94c5.17-2.54,6.95-6.32,5.06-10.37-2-4.21-6.1-5.16-11.47-2.62l-1.38.68q-38.1,18.69-76.2,37.37a22.24,22.24,0,0,1-5,1.9,7.83,7.83,0,0,1-6.29-14,24.24,24.24,0,0,1,3.95-2.3Q141,173.27,176.22,156c5-2.45,6.72-6.54,4.65-10.52s-6-4.81-10.93-2.54c-.92.43-1.84.88-2.75,1.33Q138,158.58,108.81,172.88a24.3,24.3,0,0,1-5,1.88,7.64,7.64,0,0,1-9.21-5.41c-1.33-4.27.53-7.82,5.57-10.32,10.85-5.36,52-26.89,62.78-32.32,4.28-2.15,5.7-6.14,3.94-9.87a7.14,7.14,0,0,0-6.92-4.09,54.61,54.61,0,0,0,22.11-16.54c4.72-5.73,8.3-12.39,12.56-18.86l3.57,1.17c11.23,3.78,22.37,7.85,33.71,11.27,10.82,3.26,21.24,2.63,30-5.74,5.79-5.55,8.28-12.72,9.68-20.37,1.35-7.34-.19-9.9-7.29-12.34l-2.12-.73,16.59-8.28q25.35,51.78,50.78,103.53C330.79,148.35,330.73,149.84,328.5,151.64Zm15-11C326.73,106.4,310.1,72.36,293.2,37.8l33.85-16.59C343.81,55.48,360.44,89.5,377.31,124Z"/></g></g></svg>