<svg xmlns="http://www.w3.org/2000/svg" viewBox="0 0 167.29 160.97"><defs><style>.cls-1{fill:#1b81c6;}.cls-1,.cls-2,.cls-3,.cls-4{stroke:#1b1b1b;stroke-linejoin:round;stroke-width:6px;}.cls-2,.cls-4{fill:none;}.cls-3{fill:#fff;}.cls-4{stroke-linecap:round;}</style></defs><title>monitoring-analysis-1</title><g id="Layer_2" data-name="Layer 2"><g id="Layer_1-2" data-name="Layer 1"><path class="cls-1" d="M131.23,121.38c-7.82-6.2-19.18-9.14-28.67-11.87-1.06-.3-2.26-.59-3.53-.9-5.17,9.91-27.34,16.91-27.34,16.91s-22.24-7.2-27.15-17.38c-1.93.51-3.82.92-5.39,1.37-9.49,2.72-20.85,5.67-28.67,11.87-6.15,4.87-7.68,13.28-7.45,20.7H138.68C138.91,134.66,137.38,126.26,131.23,121.38Z"/><path class="cls-2" d="M85.68,89.08s0,9,0,9c0,8.52,10.8,9.68,16.88,11.43,9.49,2.72,20.85,5.67,28.67,11.87,6.15,4.87,7.68,13.28,7.45,20.7H3c-.23-7.42,1.3-15.83,7.45-20.7,7.82-6.2,19.18-9.14,28.67-11.87C45.22,107.77,56,106.61,56,98.09v-9"/><path class="cls-2" d="M106.35,55.25c-4.42,21.44-16,35.83-35.83,35.83S39.19,76.69,34.69,55.25C30.62,35.88,29.87,3,70.49,3,110.15,3,110.35,35.87,106.35,55.25Z"/><polygon class="cls-3" points="121.36 94.25 131.71 115.22 154.85 118.59 138.1 134.91 142.06 157.97 121.36 147.08 100.65 157.97 104.61 134.91 87.86 118.59 111 115.22 121.36 94.25"/><polygon class="cls-1" points="147.16 76.69 152.45 87.42 164.29 89.14 155.73 97.5 157.75 109.29 147.16 103.72 136.57 109.29 138.59 97.5 130.02 89.14 141.86 87.42 147.16 76.69"/><path class="cls-4" d="M36.16,38.5S67.35,46,82.35,26.36c0,0,.67,19.89,24,19.64"/><line class="cls-2" x1="71.69" y1="125.52" x2="71.69" y2="142.08"/><rect class="cls-2" x="41.98" y="49.5" width="25.91" height="12.5" rx="2.33" ry="2.33"/><rect class="cls-2" x="72.98" y="49.5" width="25.91" height="12.5" rx="2.33" ry="2.33"/></g></g></svg>