<svg xmlns="http://www.w3.org/2000/svg" viewBox="0 0 496.15 502.32"><defs><style>.cls-1{fill:#fff;}.cls-1,.cls-2{stroke:#000;stroke-miterlimit:10;stroke-width:15px;}.cls-2{fill:#1b81c6;}</style></defs><title>msp-icon-6</title><g id="Layer_2" data-name="Layer 2"><g id="Layer_1-2" data-name="Layer 1"><path class="cls-1" d="M384.92,190.45H15.5a8,8,0,0,0-8,8V423.07a8,8,0,0,0,8,8h10a8,8,0,0,0,8-8v49.7H384.92a13.08,13.08,0,0,0,12.78-13.29V203.74A13.08,13.08,0,0,0,384.92,190.45Z"/><rect class="cls-2" x="-22.16" y="124.03" width="356.08" height="161.86" transform="translate(-91.53 276.32) rotate(-68.83)"/><path class="cls-1" d="M225.2,78.86c.28-.71.59-1.41.91-2.09L190.28,62.9c-.22.72-.46,1.44-.73,2.15a29.91,29.91,0,0,1-38.69,17.09L68.64,294.48a29.91,29.91,0,0,1,17.09,38.69L121.39,347a29.91,29.91,0,0,1,38.69-17.09l82.21-212.33A29.91,29.91,0,0,1,225.2,78.86Z"/><rect class="cls-2" x="42.83" y="139.03" width="356.08" height="161.86" transform="translate(-87.03 268.53) rotate(-53.85)"/><path class="cls-1" d="M320.45,116.07c.45-.62.93-1.21,1.42-1.78l-31-22.67c-.4.64-.81,1.27-1.26,1.89a29.91,29.91,0,0,1-41.8,6.51L113.45,283.87a29.91,29.91,0,0,1,6.51,41.8l30.87,22.56a29.91,29.91,0,0,1,41.8-6.51L327,157.87A29.91,29.91,0,0,1,320.45,116.07Z"/><rect class="cls-1" x="188.8" y="142.95" width="279.94" height="172" rx="8" ry="8" transform="translate(-71.13 253.3) rotate(-38.34)"/><rect class="cls-2" x="173.29" y="190.34" width="279.94" height="38" rx="3.76" ry="3.76" transform="translate(-62.31 239.45) rotate(-38.34)"/><path class="cls-1" d="M358.92,212.51H7.5V494.82H358.92a13.08,13.08,0,0,0,12.78-13.29V225.79A13.08,13.08,0,0,0,358.92,212.51Z"/><rect class="cls-1" x="283.76" y="320.16" width="124" height="67" rx="28.17" ry="28.17"/><circle class="cls-1" cx="328.76" cy="353.66" r="13.67"/></g></g></svg>