<svg xmlns="http://www.w3.org/2000/svg" viewBox="0 0 151.15 116.12"><defs><style>.cls-1{fill:#44aeea;}.cls-1,.cls-2,.cls-3{stroke:#000;stroke-linecap:round;stroke-linejoin:round;stroke-width:6px;}.cls-2{fill:#fff;}.cls-3{fill:none;}</style></defs><title>msp-icon-3</title><g id="Layer_2" data-name="Layer 2"><g id="Layer_1-2" data-name="Layer 1"><rect class="cls-1" x="13.66" y="87.08" width="35.49" height="26.04" rx="2.33" ry="2.33"/><rect class="cls-1" x="57.83" y="87.08" width="35.49" height="26.04" rx="2.33" ry="2.33"/><rect class="cls-1" x="103.18" y="87.08" width="35.49" height="26.04" rx="2.33" ry="2.33"/><rect class="cls-2" x="39.69" y="3" width="71.77" height="56" rx="6.31" ry="6.31"/><path class="cls-3" d="M13.66,100.1H7.42C5,100.1,3,97.77,3,94.92V26.32c0-2.85,2-5.18,4.42-5.18H39.51"/><line class="cls-3" x1="57.34" y1="100.1" x2="49.16" y2="100.1"/><line class="cls-3" x1="103.18" y1="100.1" x2="93.32" y2="100.1"/><path class="cls-3" d="M111.57,21.14h32.16c2.43,0,4.43,2.33,4.43,5.18V94.92c0,2.85-2,5.18-4.43,5.18h-5.06"/></g></g></svg>