<svg xmlns="http://www.w3.org/2000/svg" viewBox="0 0 525.37 448.13"><defs><style>.cls-1{fill:#fff;}.cls-1,.cls-2,.cls-3{stroke:#000;stroke-width:15px;}.cls-1,.cls-2{stroke-miterlimit:10;}.cls-2{fill:#1b81c6;}.cls-3{fill:none;stroke-linecap:round;stroke-linejoin:round;}</style></defs><title>msp-icon-5</title><g id="Layer_2" data-name="Layer 2"><g id="Layer_1-2" data-name="Layer 1"><path class="cls-1" d="M454,64.55H15.5a8,8,0,0,0-8,8V399.29a8,8,0,0,0,8,8H53.25v31.3a2,2,0,0,0,2,2H114.2a2,2,0,0,0,2-2v-31.3h237v31.3a2,2,0,0,0,2,2h58.91a2,2,0,0,0,2-2v-31.3H454a8,8,0,0,0,8-8V72.55A8,8,0,0,0,454,64.55Z"/><rect class="cls-1" x="36.6" y="90.05" width="396.28" height="295.1" rx="8.99" ry="8.99"/><circle class="cls-2" cx="234.74" cy="241.76" r="97.17"/><path class="cls-1" d="M349.07,227.26H289.35a56.58,56.58,0,0,0-41.28-40.4v-60.6a8,8,0,0,0-8-8H229.41a8,8,0,0,0-8,8v60.6a56.58,56.58,0,0,0-41.28,40.4H120.41a8,8,0,0,0-8,8v10.67a8,8,0,0,0,8,8h59.16a56.56,56.56,0,0,0,41.84,42.74v58.26a8,8,0,0,0,8,8h10.67a8,8,0,0,0,8-8V296.67a56.56,56.56,0,0,0,41.84-42.74h59.16a8,8,0,0,0,8-8V235.26A8,8,0,0,0,349.07,227.26Z"/><circle class="cls-1" cx="234.74" cy="241.76" r="23.17"/><path class="cls-2" d="M430.16,8.31c-15,7.18-43.63,24.5-82.27,29.83v81.79c3.23,34.89,35.69,65.8,85,86.33,49.3-20.52,81.77-51.44,85-86.33V38.88C476.48,33.42,445.85,15.82,430.16,8.31Z"/><polyline class="cls-3" points="397.19 87.83 430.2 133.68 465.99 66.23"/></g></g></svg>