<svg xmlns="http://www.w3.org/2000/svg" xmlns:xlink="http://www.w3.org/1999/xlink" viewBox="0 0 415.3 463.96"><defs><style>.cls-1,.cls-5,.cls-7{fill:none;}.cls-2{fill:#fff;}.cls-3{clip-path:url(#clip-path);}.cls-4,.cls-6{fill:#1b81c6;}.cls-5,.cls-6,.cls-7{stroke:#000;}.cls-5,.cls-7{stroke-linecap:round;}.cls-5,.cls-6{stroke-miterlimit:10;}.cls-5{stroke-width:24px;}.cls-6,.cls-7{stroke-width:15px;}.cls-7{stroke-linejoin:round;}</style><clipPath id="clip-path"><rect class="cls-1" x="92.66" width="322.64" height="409.64"/></clipPath></defs><title>msp-icon-4</title><g id="Layer_2" data-name="Layer 2"><g id="Layer_1-2" data-name="Layer 1"><polygon class="cls-2" points="409.58 315.34 324.58 400.34 107.58 400.34 107.58 10.34 409.58 10.34 409.58 315.34"/><g class="cls-3"><path d="M110.36,409.64c-1.71-.69-3.47-1.26-5.11-2.09-8-4-12.28-10.52-12.46-19.42-.21-10.13-.1-197.32,0-207.46,0-6.16,4-10.53,9.53-10.67,5.77-.14,10.08,4.07,10.21,10.45.18,8.8.05,194.66.06,203.46,0,5.87,0,5.88,5.93,5.88H313.58v-4.65q0-26.4,0-52.8c0-15.64,8.64-24.34,24.17-24.35q26.4,0,52.8,0h4.66c.08-1.74.21-3.15.21-4.57q0-139.19.08-278.38c0-3.93-.94-5.28-5.11-5.27q-136.39.17-272.78,0c-4.1,0-5.17,1.22-5.16,5.22.12,48.26.07,141.12.1,189.39,0,4.32-.64,8.23-4.55,10.87a9.76,9.76,0,0,1-15.17-6.83,35,35,0,0,1-.1-4.39c0-48.26,0-141.12,0-189.39C92.72,8.52,101.27,0,117.42,0H390.61c16.07,0,24.62,8.58,24.62,24.71q0,144.79.08,289.58a17.15,17.15,0,0,1-5.43,13.11c-25.64,25.46-51.12,51.07-76.74,76.55-2.21,2.2-5,3.79-7.56,5.67Zm269.89-81.52a4.36,4.36,0,0,0-1.07-.28c-14.13,0-28.27,0-42.4-.06-2.68,0-3.4,1.21-3.39,3.67.07,14,0,28,.05,42a6.05,6.05,0,0,0,.24,1.24l46.57-46.57"/><path class="cls-4" d="M380.25,328.11l-46.57,46.57a6.05,6.05,0,0,1-.24-1.24c0-14,0-28-.05-42,0-2.46.71-3.69,3.39-3.67,14.13.07,28.26,0,42.4.06a4.36,4.36,0,0,1,1.07.28"/><line class="cls-5" x1="165.44" y1="85.48" x2="338.77" y2="85.48"/><line class="cls-5" x1="165.44" y1="140.81" x2="338.77" y2="140.81"/><line class="cls-5" x1="165.44" y1="196.14" x2="338.77" y2="196.14"/><line class="cls-5" x1="165.44" y1="251.48" x2="338.77" y2="251.48"/></g><path class="cls-6" d="M104.38,222.73C86.72,231.18,53,251.58,7.5,257.86v96.32c3.8,41.08,42,77.49,100.09,101.66,58.06-24.17,96.28-60.57,100.09-101.66V258.72C158.93,252.29,122.86,231.57,104.38,222.73Z"/><polyline class="cls-7" points="65.56 316.37 104.43 370.36 146.57 290.93"/></g></g></svg>