<svg xmlns="http://www.w3.org/2000/svg" viewBox="0 0 43.92 26.42"><defs><style>.cls-1{fill:#44aeea;}.cls-1,.cls-2{stroke:#000;stroke-linecap:round;stroke-linejoin:round;stroke-width:2px;}.cls-2{fill:#fff;}</style></defs><title>num-3</title><g id="Layer_2" data-name="Layer 2"><g id="Layer_1-2" data-name="Layer 1"><path class="cls-1" d="M1,13.21C1,6.57,5.23,1,11.9,1S22.73,6.5,22.73,13.21s-4.19,12.21-10.9,12.21S1,19.92,1,13.21Zm15.19,0c0-3.72-1.78-6.44-4.36-6.44S7.54,9.38,7.54,13.21s1.74,6.44,4.36,6.44S16.19,17,16.19,13.21Z"/><path class="cls-2" d="M23.63,21.09l4.14-4.14a7.78,7.78,0,0,0,5.67,2.72c1.87,0,3.06-1,3.06-2.48s-1.39-2.45-3.87-2.45H29.84l-1-3.43,5.47-4.92h-9.1V1H42.44V5.77l-5.67,4.86c3.4.75,6.15,2.65,6.15,6.76,0,4.82-3.87,7.91-9.17,7.91A13,13,0,0,1,23.63,21.09Z"/></g></g></svg>