<svg xmlns="http://www.w3.org/2000/svg" viewBox="0 0 45.3 26.66"><defs><style>.cls-1{fill:#44aeea;}.cls-1,.cls-2{stroke:#000;stroke-linecap:round;stroke-linejoin:round;stroke-width:2px;}.cls-2{fill:#fff;}</style></defs><title>num-2</title><g id="Layer_2" data-name="Layer 2"><g id="Layer_1-2" data-name="Layer 1"><path class="cls-1" d="M1,13.21C1,6.57,5.23,1,11.9,1S22.73,6.5,22.73,13.21s-4.19,12.21-10.9,12.21S1,19.92,1,13.21Zm15.19,0c0-3.72-1.78-6.44-4.36-6.44S7.54,9.38,7.54,13.21s1.74,6.44,4.36,6.44S16.19,17,16.19,13.21Z"/><path class="cls-2" d="M25.18,20.62l9-6.9c2.28-1.73,3.11-2.9,3.11-4.35a2.41,2.41,0,0,0-2.69-2.45c-1.62,0-2.9.93-4.8,3.11L25.32,6.26c2.59-3.35,5.14-5.18,9.84-5.18,5.28,0,8.91,3.14,8.91,7.77,0,3.87-2,5.9-5.59,8.46l-4.14,2.9h10v5.45H25.18Z"/></g></g></svg>