<svg xmlns="http://www.w3.org/2000/svg" viewBox="0 0 28 28"><defs><style>.cls-1{fill:#1b81c6;}.cls-2{fill:#fff;}</style></defs><title>pdf-doc</title><g id="Layer_2" data-name="Layer 2"><g id="Layer_1-2" data-name="Layer 1"><path d="M24.06,28H3.94a.76.76,0,0,1-.44-.79c0-.72,0-1.44,0-2.16V24.5c-.93,0-1.82,0-2.71,0A.76.76,0,0,1,0,24.06V12.69a6,6,0,0,1,.39-.48q1.44-1.46,2.9-2.9a.66.66,0,0,0,.21-.52q0-4,0-8c0-.53.22-.75.75-.75H18.49a.93.93,0,0,1,.71.29l5,5A.9.9,0,0,1,24.5,6c0,.94,0,1.88,0,2.82a.6.6,0,0,0,.19.48q1.47,1.45,2.92,2.92a6,6,0,0,1,.39.48V24.06a.76.76,0,0,1-.79.44c-.72,0-1.44,0-2.16,0H24.5c0,.93,0,1.82,0,2.71A.76.76,0,0,1,24.06,28ZM1.18,13.43v9.89H26.81V13.43ZM4.68,1.18V12.23H23.31V6.42H18.87c-.6,0-.78-.19-.78-.79q0-2.06,0-4.13V1.18ZM23.32,24.52H4.69v2.3H23.32ZM22.39,5.25,19.27,2.13V5.25Zm-20.31,7h1.4v-1.4Zm22.43-1.45v1.45H26l-1.38-1.36Z"/><path class="cls-1" d="M1.18,13.43H26.81v9.89H1.18Zm11.11,8.73c.64,0,1.25,0,1.86,0a2.38,2.38,0,0,0,2.41-1.84,5.74,5.74,0,0,0,0-3.31,2.32,2.32,0,0,0-1.84-1.78,9.84,9.84,0,0,0-1.47-.07h-1Zm-3.75,0v-2.8h.79a1.83,1.83,0,0,0,1.78-1.16,2.7,2.7,0,0,0,.16-1.28,1.72,1.72,0,0,0-1.52-1.7,21.31,21.31,0,0,0-2.15-.06l-.2,0v7Zm9.4-7v7h1.19v-3H20.9v-1H19.13V16.22H21V15.16Z"/><path class="cls-2" d="M12.29,22.16v-7h1a9.84,9.84,0,0,1,1.47.07A2.32,2.32,0,0,1,16.55,17a5.74,5.74,0,0,1,0,3.31,2.38,2.38,0,0,1-2.41,1.84C13.54,22.17,12.93,22.16,12.29,22.16Zm1.2-1h.41a1.33,1.33,0,0,0,1.38-.86,4,4,0,0,0,0-3.24,1.44,1.44,0,0,0-1.78-.79Z"/><path class="cls-2" d="M8.54,22.15H7.39v-7l.2,0a21.31,21.31,0,0,1,2.15.06,1.72,1.72,0,0,1,1.52,1.7,2.7,2.7,0,0,1-.16,1.28,1.83,1.83,0,0,1-1.78,1.16H8.54Zm0-6v2.2c1.19.12,1.58-.22,1.6-1.13S9.72,16.06,8.56,16.16Z"/><path class="cls-2" d="M17.94,15.16H21v1.06H19.13v1.91H20.9v1H19.13v3H17.94Z"/><path class="cls-1" d="M13.49,21.12V16.23a1.44,1.44,0,0,1,1.78.79,4,4,0,0,1,0,3.24,1.33,1.33,0,0,1-1.38.86Z"/><path class="cls-1" d="M8.56,16.16c1.16-.1,1.62.2,1.6,1.07s-.41,1.26-1.6,1.13Z"/></g></g></svg>