<svg xmlns="http://www.w3.org/2000/svg" viewBox="0 0 71.5 76.21"><defs><style>.cls-1,.cls-4{fill:#fff;}.cls-2{fill:#44aeea;}.cls-2,.cls-3,.cls-4{stroke:#000;stroke-linecap:round;stroke-linejoin:round;stroke-width:5px;}.cls-3{fill:none;}</style></defs><title>project-icon-1</title><g id="Слой_2" data-name="Слой 2"><g id="Layer_1" data-name="Layer 1"><rect class="cls-1" x="45.5" y="2.5" width="23.5" height="71.21"/><rect class="cls-2" x="2.5" y="2.5" width="43" height="71.21"/><polyline class="cls-3" points="47 2.5 58 2.5 58 73.71 47.5 73.71"/><polyline class="cls-3" points="58 2.5 69 2.5 69 73.71 58.5 73.71"/><circle class="cls-4" cx="24" cy="38.1" r="10.16"/><path class="cls-2" d="M15.73,4.43a11,11,0,0,1-11,11"/><path class="cls-2" d="M32.37,4.43a11,11,0,0,0,11,11"/><path class="cls-2" d="M32.37,71.07a11,11,0,0,1,11-11"/><path class="cls-2" d="M15.73,71.07a11,11,0,0,0-11-11"/></g></g></svg>