<svg xmlns="http://www.w3.org/2000/svg" viewBox="0 0 173.34 351.83"><defs><style>.cls-1{fill:#fff;}</style></defs><title>service-cash</title><g id="Layer_2" data-name="Layer 2"><g id="Layer_1-2" data-name="Layer 1"><path class="cls-1" d="M104,146.26c-36-14.91-42.1-22.67-42.1-34.43,0-10.8,8-22.34,30.33-22.34a84.78,84.78,0,0,1,44.36,12,12,12,0,0,0,17.18-6.17l10-26.35a12,12,0,0,0-5.15-14.6c-13.67-8-28.8-12.89-46-14.79V12a12,12,0,0,0-12-12H75.89a12,12,0,0,0-12,12V42.63c-16.3,4.31-30.23,12.31-40.68,23.46C10.38,79.77,3.6,97.25,3.6,116.62c0,45.29,37.11,66,73.44,80.23,33,13.4,37.57,25.4,37.57,36.37,0,16.23-14.27,27.13-35.52,27.13a93.84,93.84,0,0,1-50.84-15.15,12,12,0,0,0-18,5.94L.7,277.88A12,12,0,0,0,5,291.7c13.7,9.79,34.8,16.85,56.07,19.08v29.06a12,12,0,0,0,12,12H98.25a12,12,0,0,0,12-12V308c38.14-10.15,63.09-40.28,63.09-77.57C173.34,180.87,136.27,159.4,104,146.26Z"/></g></g></svg>