<svg xmlns="http://www.w3.org/2000/svg" viewBox="0 0 87.43 83.22"><defs><style>.cls-1{fill:#44aeea;}.cls-1,.cls-2,.cls-3{stroke:#000;stroke-linecap:round;stroke-linejoin:round;stroke-width:4px;}.cls-2{fill:#fff;}.cls-3{fill:none;}</style></defs><title>sro-item-3</title><g id="Слой_2" data-name="Слой 2"><g id="Layer_1" data-name="Layer 1"><path class="cls-1" d="M26.71,38.26v8.07L7.8,54.92S2.16,56.29,2,64.29v9.07H64.72V64.29c-.16-8-5.8-9.37-5.8-9.37L40,46.33V38.26Z"/><path class="cls-2" d="M47,49.52c-16.28,14.24-27.32,0-27.32,0l6-3.19V38.26H41v8.07Z"/><line class="cls-3" x1="15.39" y1="67.06" x2="15.39" y2="72.55"/><line class="cls-3" x1="50.72" y1="67.06" x2="50.72" y2="72.55"/><path class="cls-2" d="M33.27,41.36h0c-6,0-14.66-6.6-14.66-14.66v-10A14.71,14.71,0,0,1,33.27,2h0A14.71,14.71,0,0,1,47.94,16.66v10C47.94,34.76,39,41.36,33.27,41.36Z"/><polyline class="cls-2" points="18.61 17.72 34.92 17.72 38.33 14.07 40.92 17.72 47.94 18.43"/><path class="cls-1" d="M81.74,43.33c-8.35,0-15.11-7.95-15.11-10.74,0,2.79-6.76,10.74-15.1,10.74a15.19,15.19,0,0,1-4.29-.62,24,24,0,0,0-.17,2.82V57.72a24.08,24.08,0,0,0,19.18,23.5,24.08,24.08,0,0,0,19.18-23.5V45.53a22.75,22.75,0,0,0-.15-2.62A15.25,15.25,0,0,1,81.74,43.33Z"/><polygon class="cls-2" points="66.21 49.57 69.07 55.38 75.48 56.31 70.84 60.84 71.94 67.22 66.21 64.2 60.47 67.22 61.57 60.84 56.93 56.31 63.34 55.38 66.21 49.57"/></g></g></svg>