<svg xmlns="http://www.w3.org/2000/svg" viewBox="0 0 111.71 126.59"><defs><style>.cls-1,.cls-2,.cls-3{fill:none;}.cls-1,.cls-2,.cls-3,.cls-4,.cls-5{stroke:#000;stroke-linecap:round;stroke-linejoin:round;}.cls-1,.cls-4,.cls-5{stroke-width:5px;}.cls-2,.cls-3{stroke-width:5px;}.cls-3{stroke-dasharray:5.38 8.08;}.cls-4{fill:#44aeea;}.cls-5{fill:#fff;}</style></defs><title>sro-item-2</title><g id="Слой_2" data-name="Слой 2"><g id="Layer_1" data-name="Layer 1"><line class="cls-1" x1="18.92" y1="112.61" x2="92.79" y2="112.61"/><line class="cls-2" x1="55.42" y1="45.23" x2="53.5" y2="47.32"/><line class="cls-3" x1="48.06" y1="53.29" x2="23.55" y2="80.12"/><line class="cls-2" x1="20.83" y1="83.1" x2="18.92" y2="85.19"/><line class="cls-2" x1="55.42" y1="45.23" x2="57.33" y2="47.32"/><line class="cls-3" x1="62.77" y1="53.29" x2="87.28" y2="80.12"/><line class="cls-2" x1="90" y1="83.1" x2="91.92" y2="85.19"/><circle class="cls-4" cx="18.92" cy="85.19" r="10.83"/><circle class="cls-4" cx="92.79" cy="85.19" r="10.83"/><circle class="cls-5" cx="55.42" cy="15.45" r="10.83"/><line class="cls-1" x1="42.94" y1="2.5" x2="67.9" y2="29.82"/><line class="cls-1" x1="67.9" y1="2.5" x2="42.94" y2="29.82"/><path class="cls-5" d="M71.83,53.92V44.26A10.87,10.87,0,0,0,61,33.42H49.83A10.87,10.87,0,0,0,39,44.26v9.66Z"/><path class="cls-4" d="M109.21,124.09v-9.67a10.87,10.87,0,0,0-10.83-10.83H87.21a10.86,10.86,0,0,0-10.83,10.83v9.67Z"/><path class="cls-4" d="M35.33,124.09v-9.67A10.86,10.86,0,0,0,24.5,103.59H13.33A10.87,10.87,0,0,0,2.5,114.42v9.67Z"/></g></g></svg>