<svg xmlns="http://www.w3.org/2000/svg" viewBox="0 0 69.43 74.82"><defs><style>.cls-1{fill:#fff;}.cls-2{fill:none;stroke:#000;stroke-linecap:round;stroke-linejoin:round;stroke-width:5px;}.cls-3{fill:#44aeea;}</style></defs><title>sro-item-1</title><g id="Слой_2" data-name="Слой 2"><g id="Layer_1" data-name="Layer 1"><path class="cls-1" d="M52.17,18.53C44,18.53,41.49,9,40.58,2.5l-9.86.77c0,4-5.67,14.38-17.51,14.38h-10a33.08,33.08,0,0,0-.25,4V39A34.2,34.2,0,0,0,30.18,72.32h10C52.16,67,57.42,52.82,57.42,39V21.66a32.77,32.77,0,0,0-.22-3.73A21.38,21.38,0,0,1,52.17,18.53Z"/><path class="cls-2" d="M51.72,18.53c-8.21,0-10.67-9.57-11.59-16l-9.85.77c0,4-5.67,14.38-17.52,14.38h-10a35.25,35.25,0,0,0-.24,4V39A34.19,34.19,0,0,0,29.74,72.32h10C51.72,67,57,52.82,57,39V21.66a32.78,32.78,0,0,0-.21-3.73A21.46,21.46,0,0,1,51.72,18.53Z"/><path class="cls-3" d="M61.74,18.53C49.9,18.53,40.3,7.24,40.3,3.27c0,4-9.6,15.26-21.44,15.26a21.57,21.57,0,0,1-6.1-.88,35.25,35.25,0,0,0-.24,4V39A34.19,34.19,0,0,0,39.76,72.32,34.19,34.19,0,0,0,67,39V21.66a32.78,32.78,0,0,0-.21-3.73A21.46,21.46,0,0,1,61.74,18.53Z"/><path class="cls-2" d="M61.68,18.53c-11.84,0-21.44-11.29-21.44-15.26,0,4-9.6,15.26-21.45,15.26a21.5,21.5,0,0,1-6.09-.88,35.25,35.25,0,0,0-.24,4V39A34.19,34.19,0,0,0,39.69,72.32,34.19,34.19,0,0,0,66.93,39V21.66a35.26,35.26,0,0,0-.21-3.73A21.46,21.46,0,0,1,61.68,18.53Z"/><path class="cls-1" d="M42.67,35.87A4.46,4.46,0,0,0,44.2,32.5a4.51,4.51,0,1,0-9,0,4.46,4.46,0,0,0,1.53,3.37L32.28,47.61H47.11Z"/><path class="cls-2" d="M42.67,35.87A4.46,4.46,0,0,0,44.2,32.5a4.51,4.51,0,1,0-9,0,4.46,4.46,0,0,0,1.53,3.37L32.28,47.61H47.11Z"/></g></g></svg>