<svg xmlns="http://www.w3.org/2000/svg" viewBox="0 0 181.45 188.63"><defs><style>.cls-1{fill:none;stroke:#c8c8c8;stroke-miterlimit:10;stroke-width:5px;}</style></defs><title>team-woman</title><g id="Layer_2" data-name="Layer 2"><g id="Layer_1-2" data-name="Layer 1"><path class="cls-1" d="M35.92,137.31c-.6-19-.9-38-.6-57,.18-11.35-.16-22.72.72-34,1.09-14.08,6.74-25.89,18.59-34.18C61.93,7,70.21,4.44,79,3.27c1.27-.17,2.62,0,3.78-.77H98.06c2.53.8,5.2.66,7.79,1.14,6.95,1.3,13.63,3.23,19.32,7.66s8.8,10.13,8.45,17.48c0,.77-.06,1.33.91,1.49,7.29,1.24,9.31,6.7,10.24,13,2.27,15.36,1.52,30.81,1.37,46.24s-.45,30.63-.7,45.94c0,.38-.06.76-.09,1.14-5.24-.86-10.42-2-15.59-3.25-1.9-.45-3.71-1.32-5.72-1.31-2.7-1.72-5.62-3.15-7.64-5.77-.81-1.28-1.6-2.57-2.43-3.84a1.44,1.44,0,0,1,.28-2.25,26.6,26.6,0,0,0,2.75-2.66c7.25-7.8,10.9-17.35,13.12-27.54.29-1.35,3.63-2,5.9-6.43a21.8,21.8,0,0,0,2.64-13.64c-.53-3.53-1.26-7-5.76-7.64-.77-.1-.51-.78-.54-1.23-.33-5.47-.62-10.93-1.38-16.36-.31-2.21-.68-4.41-1.09-7a15.2,15.2,0,0,1-10.24,7.14,35.34,35.34,0,0,1-13.67,0c-7.35-1.21-14.68-2.71-22.18-2.47-7.9.25-15.68,1.24-22.54,5.57-5.11,3.23-9.34,7.3-10.49,13.65-.08.45-.24.67-.72.69-3.2.14-4.48,2.41-5.22,5-1.64,5.77-.21,18.51,6.26,20.53,1.22.08,1.62.77,1.88,1.95,2.5,11.65,6.92,22.32,16,30.5a1.31,1.31,0,0,1,.29,2c-.85,1.33-1.69,2.67-2.53,4-2.05,2.64-4.91,4.19-7.77,5.74C51.39,134.2,43.6,135.51,35.92,137.31Z"/><path class="cls-1" d="M178.83,186.13A120.28,120.28,0,0,0,175.39,161c-1.44-5.45-3.62-10.4-8-14.23s-9.49-6-14.88-7.85c-2.63-.88-5.45-1.08-8-2.3,0-.38.09-.76.09-1.14.24-15.31.55-30.63.7-45.94s.9-30.88-1.37-46.24c-.93-6.27-2.94-11.72-10.24-13-1-.17-.95-.72-.91-1.49.36-7.35-2.77-13.05-8.45-17.48S112,4.94,105.09,3.64c-2.59-.48-5.26-.35-7.79-1.14H82c-1.16.76-2.51.61-3.78.77-8.76,1.16-17,3.7-24.33,8.8C42,20.37,36.35,32.17,35.27,46.25c-.87,11.32-.54,22.7-.72,34-.3,19,0,38,.6,57a69.56,69.56,0,0,0-11.47,3.57c-8.63,3.65-14.7,9.53-17.16,18.9-2.28,8.66-3.16,17.48-3.83,26.36Z"/><path class="cls-1" d="M69,120.27s21.78,27.39,45.27-.12"/><path class="cls-1" d="M54.63,133.15s8.32,29,37,44c0,0,25.77-12,38.14-43.82"/></g></g></svg>