<svg xmlns="http://www.w3.org/2000/svg" viewBox="0 0 196.29 193.94"><defs><style>.cls-1{fill:none;stroke:#c8c8c8;stroke-miterlimit:10;stroke-width:5px;}</style></defs><title>team-man</title><g id="Layer_2" data-name="Layer 2"><g id="Layer_1-2" data-name="Layer 1"><path class="cls-1" d="M49.92,66c-2.64-10.52-2-21.07,0-31.57C51.54,25.65,56.65,19,63.75,13.92A62.43,62.43,0,0,1,90.57,3c4.33-.71,14.9-.64,18.28.26,10.36,2.76,17.89,8.18,23.41,17,.41.65.64,1.35,1.65,1.39,4.3.2,7,2.8,9,6.3a36.73,36.73,0,0,1,4.22,13.9,84.66,84.66,0,0,1-.11,23c-.91,2.95-1.63,6-3.63,8.55,0-.6-.19-3-.25-3.68q-.18-2-.47-4c-.38-2.66-.88-5.31-1.5-7.93a72.32,72.32,0,0,0-4.88-15.13,16.67,16.67,0,0,1-6,7.73,45.54,45.54,0,0,1-8.35,4.72c-2.23,1-5.32,2.54-7.79,2.62,2.13-2.54,4.07-5,5-7.41a17.05,17.05,0,0,0,.41-8.28c-1,1.36-2.57,2.17-3.87,3.2a48.85,48.85,0,0,1-4.54,3.18,52.14,52.14,0,0,1-10.26,4.8,81,81,0,0,1-23.77,4.28,96.36,96.36,0,0,1-12.84-.7c-2.27-.51-4.6-.87-6.8-1.6-1.63-.53-1.88,0-2,1.43a142.41,142.41,0,0,0-.53,16.35c0,.64.24,1.36-.26,2C52.25,72.34,51.12,69.15,49.92,66Z"/><path class="cls-1" d="M193.36,191.44a18.54,18.54,0,0,1-.41-2,122.7,122.7,0,0,0-3.46-24.82c-2.06-8.33-6.52-14.6-14-18.7A57.06,57.06,0,0,0,162.79,141c-9-2.41-18.29-3.63-27.31-6h0c-4.08-1.36-4.83-1.8-8.77-5.61a21.58,21.58,0,0,1-4.64-6.4,62.31,62.31,0,0,0,6.74-7c5.71-7.32,9-15.71,10.94-24.69a2.14,2.14,0,0,1,1.5-1.82,7.4,7.4,0,0,0,3.7-3,22.33,22.33,0,0,0,3.67-15.58c-.25-2.3-.89-4.6-2.85-6.2a84.66,84.66,0,0,0,.11-23,36.73,36.73,0,0,0-4.22-13.9c-2-3.5-4.68-6.1-9-6.3-1,0-1.25-.74-1.65-1.39-5.52-8.81-13-14.56-23.41-17-2.38-.55-13-.92-18.28-.26A58,58,0,0,0,62.52,13.8c-7.1,5.11-12.21,11.73-13.84,20.52-1.95,10.5-2.63,21,0,31.57-3.15,7-2.06,13.68,1.71,20.1a7.64,7.64,0,0,0,4.23,3.57c1,.31,1.21,1,1.4,1.89a69.83,69.83,0,0,0,5.25,15.47c2.92,6.06,11.47,15.15,12,15.71-1.11,2.42-2.81,5.76-3.21,6.32-2.85,4-5.67,4.83-10.13,6.28l-14.88,3.15c-7.95,1.7-15.95,3.18-23.32,6.88C14.06,149.11,9,154.95,6.69,163.41c-2.5,9.21-3.45,18.58-4,28Z"/><path class="cls-1" d="M73.28,122.63s21,18.6,48.8.37"/><polyline class="cls-1" points="59.94 135.22 77.12 152.64 91.34 130.52 103.45 130.52 122.08 155.78 135.49 135.01"/><path class="cls-1" d="M83.49,144s15.07,17.7,28.5-.42"/><polyline class="cls-1" points="93.4 152.64 87.06 191.44 107.4 191.44 101.9 152.64"/></g></g></svg>