<svg xmlns="http://www.w3.org/2000/svg" viewBox="0 0 105.31 105.31"><defs><style>.cls-1{fill:#fff;}</style></defs><title>telegram-icon</title><g id="Layer_2" data-name="Layer 2"><g id="Layer_1-2" data-name="Layer 1"><path class="cls-1" d="M77.31,27.9s0,0,0-.06a1.37,1.37,0,0,0-.06-.31l0-.05a1.37,1.37,0,0,0-.14-.29l0,0a1.37,1.37,0,0,0-.22-.24l0,0h0l-.2-.14-.08,0-.06,0a1.37,1.37,0,0,0-.31-.1h0a1.37,1.37,0,0,0-.33,0h0a1.37,1.37,0,0,0-.32.07h0L16.89,48.89a1.38,1.38,0,0,0,0,2.59l15.81,5.43a.1.1,0,0,1,.06.07l4.34,18.65,0,.05,0,.13,0,.1.05.1.07.11,0,.06.11.12,0,0a1.33,1.33,0,0,0,1,.38h0l.23,0,.08,0,.14,0,.08,0,.12-.06.08-.05.11-.08.07-.07.07-.07,8.81-9.9a.1.1,0,0,1,.13,0L65.21,78.46l.12.07.06,0,.12.05.08,0,.12,0,.08,0,.21,0,.25,0,.07,0,.18-.05h0l0,0a1.37,1.37,0,0,0,.81-1l9.91-49.38A1.37,1.37,0,0,0,77.31,27.9ZM38.15,67.81,35.47,56.27a.1.1,0,0,1,0-.1L60.72,39.4a.16.16,0,0,1,.2.25L40.23,58.32l-.15.16h0a1.38,1.38,0,0,0-.16.26l0,.07a1.37,1.37,0,0,0-.09.3L38.35,67.8A.1.1,0,0,1,38.15,67.81Z"/><path class="cls-1" d="M52.65,0a52.65,52.65,0,1,0,52.65,52.65A52.65,52.65,0,0,0,52.65,0Zm0,96.81A44.15,44.15,0,1,1,96.81,52.65,44.15,44.15,0,0,1,52.65,96.81Z"/></g></g></svg>