<svg xmlns="http://www.w3.org/2000/svg" viewBox="0 0 161.28 129.63"><defs><style>.cls-1,.cls-5{fill:#fff;}.cls-1,.cls-3,.cls-4,.cls-5,.cls-6,.cls-7{stroke:#000;stroke-width:7px;}.cls-1,.cls-3,.cls-4{stroke-miterlimit:10;}.cls-2,.cls-6{fill:#44aeea;}.cls-3,.cls-4,.cls-7{fill:none;}.cls-4,.cls-7{stroke-linecap:round;}.cls-5,.cls-6,.cls-7{stroke-linejoin:round;}</style></defs><title>tender-scheme-icon-1</title><g id="Layer_2" data-name="Layer 2"><g id="Layer_1-2" data-name="Layer 1"><path class="cls-1" d="M123.83,46.78v52a5.69,5.69,0,0,1-5.67,5.67H9.17A5.69,5.69,0,0,1,3.5,98.8V24a5.69,5.69,0,0,1,5.67-5.67h109a5.64,5.64,0,0,1,1,.09"/><rect class="cls-2" x="3.5" y="86.13" width="118.79" height="18.33"/><path class="cls-3" d="M123.83,46.78v52a5.69,5.69,0,0,1-5.67,5.67H9.17A5.69,5.69,0,0,1,3.5,98.8V24a5.69,5.69,0,0,1,5.67-5.67h109a5.64,5.64,0,0,1,1,.09"/><line class="cls-3" x1="63.67" y1="104.47" x2="63.67" y2="126.13"/><line class="cls-4" x1="33.17" y1="126.13" x2="91.17" y2="126.13"/><line class="cls-4" x1="3.5" y1="86.13" x2="123.83" y2="86.13"/><rect class="cls-5" x="114.88" y="0.6" width="23.67" height="59.33" transform="translate(78.43 -90.74) rotate(54.81)"/><polygon class="cls-6" points="95.65 37.69 84.26 60.2 109.29 57.03 95.65 37.69"/><path class="cls-7" d="M20.5,64.78c1.42-3.33,3.67-6.85,6.83-8.74a7.8,7.8,0,0,1,8-.09c5,2.71,6.88,10.39,13.71,9.55,3.81-.47,5.88-4.15,9.3-4.88s6.2,2.68,8.87,4.17"/></g></g></svg>