<svg xmlns="http://www.w3.org/2000/svg" viewBox="0 0 105.33 105.33"><defs><style>.cls-1{fill:#fff;}</style></defs><title>whatsapp-icon</title><g id="Layer_2" data-name="Layer 2"><g id="Layer_1-2" data-name="Layer 1"><path class="cls-1" d="M89.9,89.91A52.67,52.67,0,1,0,7,78.87l0,0-6.46,26,26-6.46,0,0A52.68,52.68,0,0,0,89.9,89.91Zm-60.75.84L9.77,95.56l4.81-19.38A44.76,44.76,0,1,1,29.15,90.75Z"/><path class="cls-1" d="M40.93,63.87a59,59,0,0,0,23.55,13.9v0a10,10,0,0,0,10.23-2.62l2.77-2.88a6,6,0,0,0-1.81-9.66h0l-7.09-2.45h0a4.85,4.85,0,0,0-5.55,1l-2.91,3h0a59.53,59.53,0,0,1-11.22-8.6,59.53,59.53,0,0,1-9-10.87h0l2.91-3a4.85,4.85,0,0,0,.81-5.59h0l-2.73-7h0a6,6,0,0,0-9.72-1.43l-2.77,2.88a10,10,0,0,0-2.22,10.32h0A59,59,0,0,0,40.93,63.87Z"/></g></g></svg>