<svg xmlns="http://www.w3.org/2000/svg" viewBox="0 0 393.64 464.98"><defs><style>.cls-1{fill:#fff;}.cls-2,.cls-3,.cls-4{fill:#1b81c6;}.cls-3,.cls-4{stroke:#000;stroke-miterlimit:10;}.cls-3{stroke-width:16px;}.cls-4{stroke-width:20px;}</style></defs><title>wiki-tutorial</title><g id="Layer_2" data-name="Layer 2"><g id="Layer_1-2" data-name="Layer 1"><polygon class="cls-1" points="11 451.64 311.71 450.64 311.71 388.64 379.71 388.64 379.71 18.64 161.32 18.64 11 147.64 11 451.64"/><path d="M304.94,55.34c1.71.69,3.47,1.27,5.11,2.09,8,4,12.28,10.52,12.46,19.42.21,10.13.1,59.32,0,69.46,0,6.16-4,10.53-9.53,10.67-5.77.14-10.08-4.07-10.2-10.45-.18-8.8-.05-56.66-.06-65.46,0-5.87,0-5.88-5.93-5.88H101.72v4.65q0,26.4,0,52.8c0,15.64-8.64,24.34-24.17,24.35q-26.4,0-52.8,0H20.1c-.08,1.74-.21,3.15-.21,4.57q0,139.19-.08,278.38c0,3.93.94,5.28,5.11,5.27q136.39-.17,272.78,0c4.1,0,5.17-1.22,5.16-5.22-.12-48.26-.07-262.46-.1-310.72,0-4.32.64-8.23,4.55-10.87a9.76,9.76,0,0,1,15.17,6.83,35,35,0,0,1,.1,4.39c0,48.26,0,262.46,0,310.72,0,16.1-8.56,24.62-24.71,24.62H24.69C8.62,465,.08,456.39.08,440.26Q.07,295.47,0,150.67a17.15,17.15,0,0,1,5.43-13.11C31.06,112.11,56.55,86.49,82.16,61c2.21-2.2,5-3.79,7.56-5.67ZM35.05,136.86a4.34,4.34,0,0,0,1.07.28c14.13,0,28.26,0,42.4.06,2.68,0,3.4-1.21,3.39-3.68-.07-14,0-28-.05-42a6.07,6.07,0,0,0-.23-1.24Z"/><path d="M393.52,20.84C393.35,12.21,389.17,5.9,381.44,2c-1.59-.8-3.3-1.35-5-2H167.92c-2.46,1.82-5.18,3.36-7.33,5.49C148.07,18,108.23,53.7,95.73,66.19h27.93c3-3,33.38-29.29,36.41-32.31.06.31,14.63-14.2,14.63-14.2l9.83-.44H368.65c5.74,0,5.74,0,5.75,5.7,0,6.75-.07,37.26,0,53.89,0,57.74,0,249.26.09,294,0,3.87-1,5.06-5,5.06H318.12V397h51.52c15.65,0,23.94-8.26,23.94-23.86,0-43.39,0-225.14,0-288.55C393.64,69.93,393.7,29.76,393.52,20.84Z"/><path class="cls-2" d="M35.05,136.86,81.62,90.3a6.07,6.07,0,0,1,.23,1.24c0,14,0,28,.05,42,0,2.46-.71,3.69-3.39,3.68-14.13-.07-28.26,0-42.4-.06A4.34,4.34,0,0,1,35.05,136.86Z"/><circle class="cls-3" cx="164.72" cy="280.64" r="95"/><polyline class="cls-4" points="109.72 267.64 158.72 318.64 213.72 243.64"/></g></g></svg>