<svg xmlns="http://www.w3.org/2000/svg" viewBox="0 0 398.68 409.64"><defs><style>.cls-1{fill:#fff;}.cls-2{fill:#1b81c6;}</style></defs><title>wiki-article</title><g id="Layer_2" data-name="Layer 2"><g id="Layer_1-2" data-name="Layer 1"><polygon class="cls-1" points="5.71 94.3 90.72 9.3 307.71 9.3 307.71 399.3 5.71 399.3 5.71 94.3"/><path d="M304.94,0c1.71.69,3.47,1.27,5.11,2.09,8,4,12.28,10.52,12.46,19.42.21,10.13.1,59.32,0,69.46,0,6.16-4,10.53-9.53,10.67-5.77.14-10.08-4.07-10.2-10.45-.18-8.8-.05-56.66-.06-65.46,0-5.87,0-5.88-5.93-5.88H101.72V24.5q0,26.4,0,52.8c0,15.64-8.64,24.34-24.17,24.35q-26.4,0-52.8,0H20.1c-.08,1.74-.21,3.15-.21,4.57q0,139.19-.08,278.38c0,3.93.94,5.28,5.11,5.27q136.39-.17,272.78,0c4.1,0,5.17-1.22,5.16-5.22-.12-48.26-.07-141.12-.1-189.39,0-4.32.64-8.23,4.55-10.87a9.76,9.76,0,0,1,15.17,6.83,35,35,0,0,1,.1,4.39c0,48.26,0,141.12,0,189.39,0,16.1-8.56,24.62-24.71,24.62H24.69C8.62,409.63.08,401.05.08,384.92Q.07,240.13,0,95.33A17.15,17.15,0,0,1,5.43,82.22C31.06,56.77,56.55,31.15,82.16,5.67c2.21-2.2,5-3.79,7.56-5.67ZM35.05,81.52a4.34,4.34,0,0,0,1.07.28c14.13,0,28.26,0,42.4.06,2.68,0,3.4-1.21,3.39-3.68-.07-14,0-28-.05-42A6.07,6.07,0,0,0,81.62,35Z"/><path d="M137.64,260.06h-4.4c-18.53,0-37.07,0-55.6,0a10.1,10.1,0,0,1-10-8.15,9.62,9.62,0,0,1,5.63-10.45,18.81,18.81,0,0,1,7-1.12q37-.11,74,0a8.9,8.9,0,0,0,7-2.91q26.48-26.7,53.14-53.21c.9-.9,1.74-1.87,3.13-3.38h-5c-44.4,0-88.81.06-133.21-.14a14.38,14.38,0,0,1-9-3.22c-5.52-5.08-2.7-14.1,4.67-16A24.3,24.3,0,0,1,81,161q76.21,0,152.41,0a9.38,9.38,0,0,0,7.31-3.06Q284.3,114.18,328,70.51c10.32-10.35,22.31-14.07,36.46-9.62a17.78,17.78,0,0,1,5.42,2.49c10.95,8.32,22.13,16.72,26.82,30.31s.6,25.43-9.36,35.41q-35,35.1-70.14,70.16c-27.94,27.94-52,52.21-117.48,117.3a24.78,24.78,0,0,1-10.07,5.89c-18.64,5.5-37.39,10.61-56.13,15.75a29.19,29.19,0,0,1-7.46,1.07c-15.73.09-31.47.07-47.2,0-6.75,0-11.33-3.94-11.43-9.68s4.52-10,11.17-10c12.53-.1,25.07-.18,37.6.06,3.54.07,4.72-1.25,5.57-4.42,4.31-16.07,8.84-32.08,13.35-48.1C135.79,264.9,136.7,262.71,137.64,260.06Zm52.16,37.25L347.12,140l-29.45-29.65L160.31,267.7ZM362.38,125c4.36-4.09,9.34-8.15,13.55-12.9,4.34-4.91,3.89-12.23-.64-17.21-4-4.43-8.28-8.69-12.72-12.72-4.9-4.45-12.09-5-16.86-.82s-8.94,9.38-13.16,13.9Zm-212.32,162-7.75,28.19,28.09-7.82Z"/><path class="cls-2" d="M35.05,81.52,81.62,35a6.07,6.07,0,0,1,.23,1.24c0,14,0,28,.05,42,0,2.46-.71,3.69-3.39,3.68-14.13-.07-28.26,0-42.4-.06A4.34,4.34,0,0,1,35.05,81.52Z"/><path class="cls-2" d="M189.8,297.31,160.31,267.7,317.66,110.34,347.12,140Z"/><path class="cls-2" d="M362.38,125,332.55,95.3c4.21-4.52,8.31-9.64,13.16-13.9s12-3.62,16.86.82c4.43,4,8.69,8.28,12.72,12.72,4.52,5,5,12.3.64,17.21C371.72,116.89,366.73,120.95,362.38,125Z"/></g></g></svg>